# Blender 4.0.0
# www.blender.org
o tail.001
v -0.187500 -0.384340 -1.000000
v 0.187500 -0.384340 -1.000000
v -0.187500 -0.196840 -1.000000
v 0.187500 -0.196840 -1.000000
v -0.187500 -0.384340 -0.125000
v 0.187500 -0.384340 -0.125000
v -0.187500 -0.196840 -0.125000
v 0.187500 -0.196840 -0.125000
vn -0.0000 -0.0000 -1.0000
vn -0.0000 -1.0000 -0.0000
vn -0.0000 1.0000 -0.0000
vn -1.0000 -0.0000 -0.0000
vn 1.0000 -0.0000 -0.0000
vt 0.468750 0.875000
vt 0.656250 0.781250
vt 0.656250 0.875000
vt 0.437500 0.812500
vt 0.000000 1.000000
vt 0.000000 0.812500
vt 0.437500 0.781250
vt 0.000000 0.593750
vt 0.437500 0.593750
vt 0.437500 0.562500
vt 0.000000 0.468750
vt 0.437500 0.468750
vt 0.468750 1.000000
vt 0.906250 0.906250
vt 0.906250 1.000000
vt 0.468750 0.781250
vt 0.437500 1.000000
vt 0.000000 0.781250
vt 0.000000 0.562500
vt 0.468750 0.906250
s 0
f 1/1/1 4/2/1 2/3/1
f 1/4/2 6/5/2 5/6/2
f 3/7/3 8/8/3 4/9/3
f 1/10/4 7/11/4 3/12/4
f 2/13/5 8/14/5 6/15/5
f 1/1/1 3/16/1 4/2/1
f 1/4/2 2/17/2 6/5/2
f 3/7/3 7/18/3 8/8/3
f 1/10/4 5/19/4 7/11/4
f 2/13/5 4/20/5 8/14/5
