# Blender 4.0.2
# www.blender.org
o floor
v 1.600000 1.600000 -0.000500
v 1.600000 1.600000 1.599500
v 1.600000 1.500000 0.000500
v 1.600000 1.500000 1.600500
v 0.000000 1.600000 -0.000500
v 0.000000 1.600000 1.599500
v -0.000000 1.500000 0.000500
v -0.000000 1.500000 1.600500
vn 1.0000 -0.0000 -0.0000
vn -0.0000 -1.0000 -0.0000
vn -1.0000 -0.0000 -0.0000
vn -0.0000 -0.0100 -1.0000
vn -0.0000 0.0100 0.9999
vn -0.0000 0.0100 1.0000
vt 0.062500 1.000000
vt 0.000000 0.000000
vt 0.062500 0.000000
vt 1.000000 1.000000
vt 0.000000 1.000000
vt 1.000000 0.000000
vt 0.937500 1.000000
vt 0.937500 0.000000
vt 1.000000 0.062500
vt -0.000000 0.062500
vt 0.000000 1.000000
s 0
f 2/1/1 3/2/1 1/3/1
f 4/2/2 7/4/2 3/5/2
f 7/6/3 6/7/3 5/8/3
f 3/9/4 5/2/4 1/6/4
f 4/10/5 6/6/5 8/9/5
f 2/1/1 4/11/1 3/2/1
f 4/2/2 8/6/2 7/4/2
f 7/6/3 8/4/3 6/7/3
f 3/9/4 7/10/4 5/2/4
f 4/10/6 2/2/6 6/6/6
