# Blender 4.2.1 LTS
# www.blender.org
o turtle_body
v 0.950000 -0.187673 0.997596
v 0.950000 -0.787673 0.997596
v 0.950000 -0.187673 -0.997596
v 0.950000 -0.787673 -0.997596
v -0.950000 -0.187673 0.997596
v -0.950000 -0.787673 0.997596
v -0.950000 -0.187673 -0.997596
v -0.950000 -0.787673 -0.997596
v 0.300000 0.062327 1.598798
v 0.300000 -0.437673 1.598798
v 0.300000 0.062327 1.001202
v 0.300000 -0.437673 1.001202
v -0.300000 0.062327 1.598798
v -0.300000 -0.437673 1.598798
v -0.300000 0.062327 1.001202
v -0.300000 -0.437673 1.001202
v 0.532000 -0.187673 0.997596
v 0.532000 -0.187673 -0.997596
v -0.532000 -0.187673 0.997596
v -0.532000 -0.187673 -0.997596
v 0.532000 0.112327 -0.997596
v 0.532000 0.112327 0.997596
v -0.532000 0.112327 -0.997596
v -0.532000 0.112327 0.997596
vn 1.0000 -0.0000 -0.0000
vn -0.0000 -0.0000 -1.0000
vn -1.0000 -0.0000 -0.0000
vn -0.0000 -0.0000 1.0000
vn -0.0000 1.0000 -0.0000
vn -0.0000 -1.0000 -0.0000
vt 0.296875 0.015625
vt 0.250000 0.328125
vt 0.250000 0.015625
vt 0.398438 0.421875
vt 0.398438 0.328125
vt 0.054688 0.328125
vt 0.101562 0.015625
vt 0.101562 0.328125
vt 0.250000 0.421875
vt 0.375000 0.656250
vt 0.242188 0.937500
vt 0.242188 0.656250
vt 0.445312 0.015625
vt 0.296875 0.328125
vt 0.070312 0.906250
vt 0.023438 0.828125
vt 0.070312 0.828125
vt 0.164062 0.906250
vt 0.117188 0.828125
vt 0.164062 0.828125
vt 0.117188 0.906250
vt 0.117188 1.000000
vt 0.070312 1.000000
vt 0.632812 0.171875
vt 0.546875 0.484375
vt 0.546875 0.171875
vt 0.125000 0.328125
vt 0.125000 0.015625
vt 0.226562 0.015625
vt 0.226562 0.328125
vt 0.234375 0.265625
vt 0.117188 0.328125
vt 0.117188 0.265625
vt 0.054688 0.015625
vt 0.101562 0.421875
vt 0.375000 0.937500
vt 0.445312 0.328125
vt 0.023438 0.906250
vt 0.164062 1.000000
vt 0.632812 0.484375
vt 0.234375 0.328125
s 0
f 2/1/1 3/2/1 1/3/1
f 4/4/2 7/2/2 3/5/2
f 8/6/3 5/7/3 7/8/3
f 6/9/4 1/8/4 5/2/4
f 7/10/5 1/11/5 3/12/5
f 4/13/6 6/14/6 8/1/6
f 10/15/1 11/16/1 9/17/1
f 16/18/3 13/19/3 15/20/3
f 14/21/4 9/17/4 13/19/4
f 15/18/5 9/22/5 11/21/5
f 12/21/6 14/23/6 16/15/6
f 23/24/5 22/25/5 21/26/5
f 19/27/3 23/7/3 20/28/3
f 18/29/1 22/2/1 17/30/1
f 17/31/4 24/32/4 19/33/4
f 20/31/2 21/32/2 18/33/2
f 2/1/1 4/14/1 3/2/1
f 4/4/2 8/9/2 7/2/2
f 8/6/3 6/34/3 5/7/3
f 6/9/4 2/35/4 1/8/4
f 7/10/5 5/36/5 1/11/5
f 4/13/6 2/37/6 6/14/6
f 10/15/1 12/38/1 11/16/1
f 16/18/3 14/21/3 13/19/3
f 14/21/4 10/15/4 9/17/4
f 15/18/5 13/39/5 9/22/5
f 12/21/6 10/22/6 14/23/6
f 23/24/5 24/40/5 22/25/5
f 19/27/3 24/8/3 23/7/3
f 18/29/1 21/3/1 22/2/1
f 17/31/4 22/41/4 24/32/4
f 20/31/2 23/41/2 21/32/2
