# Blender 4.1.1
# www.blender.org
o trapdoor_closed
v 1.600000 0.200001 0.000000
v 1.599999 0.200001 1.600001
v 0.000000 0.199999 0.000000
v -0.000000 0.199999 1.600000
v 1.600001 -0.099999 0.000000
v 1.600000 -0.099999 1.600001
v 0.000001 -0.100001 0.000000
v 0.000000 -0.100001 1.600000
vn -0.0000 -1.0000 -0.0000
vn 1.0000 -0.0000 -0.0000
vn -0.0000 1.0000 -0.0000
vn -1.0000 -0.0000 -0.0000
vn -0.0000 -0.0000 1.0000
vn -0.0000 -0.0000 -1.0000
vt 0.000000 1.000000
vt 1.000000 0.000000
vt 0.000000 0.000000
vt 0.812500 1.000000
vt 0.812500 -0.000000
vt 1.000000 1.000000
vt 0.187500 1.000000
vt 0.187500 0.000000
vt 0.000000 0.000000
vt 1.000000 0.187500
vt 0.000000 0.187500
vt 1.000000 0.812500
vt 1.000000 0.000000
vt 0.000000 0.812500
s 0
f 2/1/1 3/2/1 1/3/1
f 3/2/2 8/4/2 7/5/2
f 8/6/3 5/3/3 7/2/3
f 6/7/4 1/3/4 5/8/4
f 7/9/5 1/10/5 3/11/5
f 8/1/6 2/12/6 6/6/6
f 2/1/1 4/6/1 3/2/1
f 3/2/2 4/6/2 8/4/2
f 8/6/3 6/1/3 5/3/3
f 6/7/4 2/1/4 1/3/4
f 7/9/5 5/13/5 1/10/5
f 8/1/6 4/14/6 2/12/6
