# Blender 4.0.0
# www.blender.org
o leg.002
v 0.187500 -0.446840 -0.250000
v 0.437500 -0.446840 -0.250000
v 0.437500 -0.009340 -0.250000
v 0.187500 -0.009340 -0.250000
v 0.562500 -0.009340 -0.250000
v 0.187500 -0.446840 0.187500
v 0.437500 -0.446840 0.187500
v 0.187500 -0.009340 0.187500
v 0.437500 -0.009340 0.187500
v 0.187500 -0.009340 0.687500
v 0.562500 -0.009340 0.687500
v 0.187500 -0.009340 -0.250000
v 0.562500 -0.009340 -0.250000
v 0.187500 -0.009340 0.687500
v 0.562500 -0.009340 0.687500
vn -0.0000 -0.0000 -1.0000
vn -0.0000 -1.0000 -0.0000
vn -1.0000 -0.0000 -0.0000
vn 1.0000 -0.0000 -0.0000
vn -0.0000 -0.0000 1.0000
vn -0.0000 1.0000 -0.0000
vt 0.031250 0.468750
vt 0.156250 0.250000
vt 0.156250 0.468750
vt 0.750000 0.843750
vt 0.531250 0.968750
vt 0.531250 0.843750
vt 0.531250 0.750000
vt 0.312500 0.531250
vt 0.531250 0.531250
vt 0.031250 0.750000
vt 0.250000 0.531250
vt 0.250000 0.750000
vt 0.468750 0.812500
vt 0.000000 1.000000
vt 0.000000 0.812500
vt 0.343750 0.468750
vt 0.218750 0.250000
vt 0.343750 0.250000
vt 0.031250 0.250000
vt 0.750000 0.968750
vt 0.312500 0.750000
vt 0.031250 0.531250
vt 0.468750 1.000000
vt 0.218750 0.468750
s 0
f 1/1/1 3/2/1 2/3/1
f 1/4/2 7/5/2 6/6/2
f 1/7/3 8/8/3 4/9/3
f 2/10/4 9/11/4 7/12/4
f 4/13/2 11/14/2 10/15/2
f 6/16/5 9/17/5 8/18/5
f 15/14/6 12/13/6 14/15/6
f 1/1/1 4/19/1 3/2/1
f 1/4/2 2/20/2 7/5/2
f 1/7/3 6/21/3 8/8/3
f 2/10/4 3/22/4 9/11/4
f 4/13/2 5/23/2 11/14/2
f 6/16/5 7/24/5 9/17/5
f 15/14/6 13/23/6 12/13/6
o leg.003
v -0.187500 -0.446840 -0.250000
v -0.437500 -0.446840 -0.250000
v -0.437500 -0.009340 -0.250000
v -0.187500 -0.009340 -0.250000
v -0.562500 -0.009340 -0.250000
v -0.187500 -0.446840 0.187500
v -0.437500 -0.446840 0.187500
v -0.187500 -0.009340 0.187500
v -0.437500 -0.009340 0.187500
v -0.187500 -0.009340 0.687500
v -0.562500 -0.009340 0.687500
v -0.187500 -0.009340 -0.250000
v -0.562500 -0.009340 -0.250000
v -0.187500 -0.009340 0.687500
v -0.562500 -0.009340 0.687500
vn -0.0000 -0.0000 -1.0000
vn -0.0000 -1.0000 -0.0000
vn 1.0000 -0.0000 -0.0000
vn -1.0000 -0.0000 -0.0000
vn -0.0000 -0.0000 1.0000
vn -0.0000 1.0000 -0.0000
vt 0.156250 0.468750
vt 0.031250 0.250000
vt 0.156250 0.250000
vt 0.750000 0.968750
vt 0.531250 0.843750
vt 0.750000 0.843750
vt 0.312500 0.750000
vt 0.531250 0.531250
vt 0.531250 0.750000
vt 0.250000 0.750000
vt 0.031250 0.531250
vt 0.250000 0.531250
vt 0.468750 1.000000
vt 0.000000 0.812500
vt 0.468750 0.812500
vt 0.218750 0.468750
vt 0.343750 0.250000
vt 0.343750 0.468750
vt 0.031250 0.468750
vt 0.531250 0.968750
vt 0.312500 0.531250
vt 0.031250 0.750000
vt 0.000000 1.000000
vt 0.218750 0.250000
s 0
f 16/25/7 18/26/7 19/27/7
f 16/28/8 22/29/8 17/30/8
f 16/31/9 23/32/9 21/33/9
f 17/34/10 24/35/10 18/36/10
f 19/37/8 26/38/8 20/39/8
f 21/40/11 24/41/11 22/42/11
f 30/38/12 27/37/12 28/39/12
f 16/25/7 17/43/7 18/26/7
f 16/28/8 21/44/8 22/29/8
f 16/31/9 19/45/9 23/32/9
f 17/34/10 22/46/10 24/35/10
f 19/37/8 25/47/8 26/38/8
f 21/40/11 23/48/11 24/41/11
f 30/38/12 29/47/12 27/37/12
