# Blender 4.1.1
# www.blender.org
o large_dog
v 0.363000 -1.464025 -1.171962
v -0.363000 -0.771545 -0.082962
v -0.363000 -1.464025 -1.171962
v -0.363000 -1.464025 -0.082962
v 0.363000 -0.771545 -0.082962
v 0.363000 -1.464025 -0.082962
v 0.392040 -0.740215 -0.082962
v -0.392040 -0.740215 0.643038
v -0.392040 -1.480194 -0.082962
v 0.392040 -0.740215 0.643038
v -0.392040 -0.740215 -0.082962
v -0.392040 -1.480194 0.643038
v 0.392040 -1.480194 0.643038
v 0.392040 -1.480194 -0.082962
v 0.326700 -1.583504 0.987888
v 0.326700 -1.583504 0.552288
v -0.326700 -0.930104 0.987888
v -0.326700 -1.583504 0.987888
v -0.326700 -0.930104 0.552288
v -0.326700 -1.583504 0.552288
v 0.326700 -0.930104 0.552288
v 0.326700 -0.930104 0.987888
v 0.101100 -1.511500 0.641236
v 0.318900 -1.511093 0.658764
v 0.318900 -1.511500 0.641236
v 0.318900 -1.820197 0.658764
v 0.318900 -1.820603 0.641236
v 0.101100 -1.820603 0.641236
v 0.101100 -1.820197 0.658764
v 0.101100 -1.511093 0.658764
v -0.101100 -1.511500 0.641236
v -0.101100 -1.820603 0.641236
v -0.101100 -1.820197 0.658764
v -0.318900 -1.820603 0.641236
v -0.318900 -1.820197 0.658764
v -0.318900 -1.511093 0.658764
v -0.101100 -1.511093 0.658764
v -0.318900 -1.511500 0.641236
v -0.163350 -0.930104 0.878988
v -0.163350 -0.930104 1.314588
v -0.163350 -1.256804 0.878988
v 0.163350 -0.930104 1.314588
v -0.163350 -1.256804 1.314588
v 0.163350 -0.930104 0.878988
v 0.163350 -1.256804 1.314588
v 0.163350 -1.256804 0.878988
v 0.363000 -0.056695 0.441065
v 0.363000 -0.771545 0.434210
v 0.114950 -0.056695 0.441065
v 0.114950 -0.771545 0.434210
v 0.114950 -0.056695 0.165619
v 0.114950 -0.771545 0.159106
v 0.363000 -0.771545 0.159106
v 0.363000 -0.056695 0.165619
v -0.114950 -0.056695 0.165619
v -0.363000 -0.056695 0.165619
v -0.363000 -0.771545 0.159106
v -0.114950 -0.771545 0.159106
v -0.114950 -0.056695 0.441065
v -0.363000 -0.056695 0.441065
v -0.363000 -0.771545 0.434210
v -0.114950 -0.771545 0.434210
v 0.114950 -0.056695 -1.165106
v 0.114950 -0.056695 -0.890002
v 0.114950 -0.771545 -1.171962
v 0.363000 -0.771545 -1.171962
v 0.114950 -0.771545 -0.896515
v 0.363000 -0.056695 -1.165106
v 0.363000 -0.056695 -0.890002
v 0.363000 -0.771545 -0.896515
v -0.114950 -0.056695 -0.890002
v -0.363000 -0.771545 -1.171962
v -0.114950 -0.771545 -1.171962
v -0.363000 -0.056695 -0.890002
v -0.363000 -0.771545 -0.896515
v -0.363000 -0.056695 -1.165106
v -0.114950 -0.056695 -1.165106
v -0.114950 -0.771545 -0.896515
v -0.121000 -1.333423 -1.120364
v -0.121000 -0.778201 -1.913304
v 0.121000 -1.135188 -0.981559
v -0.121000 -1.135188 -0.981559
v 0.121000 -1.333423 -1.120364
v -0.121000 -0.579966 -1.774498
v 0.121000 -0.579966 -1.774498
v 0.121000 -0.778201 -1.913304
vn -0.0000 1.0000 -0.0000
vn -0.0000 -1.0000 -0.0000
vn -1.0000 -0.0000 -0.0000
vn -0.0000 -0.0000 -1.0000
vn 1.0000 -0.0000 -0.0000
vn -0.0000 -0.0000 1.0000
vn -0.0000 -0.0096 1.0000
vn -0.0000 0.0091 -1.0000
vn -0.0000 -0.0091 1.0000
vn -0.0000 0.0096 -1.0000
vn -0.0000 0.8192 0.5736
vn -0.0000 -0.8192 -0.5736
vn -0.0000 -0.5736 0.8192
vn -0.0000 0.5736 -0.8192
vt 0.375000 0.312500
vt 0.375000 0.453119
vt 0.468904 0.453119
vt 0.468904 0.312500
vt 0.656260 0.312500
vt 0.562500 0.312500
vt 0.562500 0.453119
vt 0.656260 0.453119
vt 0.562500 0.218760
vt 0.468891 0.218760
vt 0.281404 0.312500
vt 0.281404 0.453119
vt 0.437500 0.109643
vt 0.437500 0.200000
vt 0.562500 0.200000
vt 0.562500 0.109643
vt 0.796839 0.109643
vt 0.671819 0.109643
vt 0.671819 0.200000
vt 0.796839 0.200000
vt 0.562500 0.000000
vt 0.437500 0.000000
vt 0.687177 0.109643
vt 0.687500 0.000000
vt 0.328154 0.109643
vt 0.328154 0.200000
vt 0.156228 0.062500
vt 0.156228 0.000000
vt 0.250000 0.000000
vt 0.250000 0.062500
vt 0.062500 0.062500
vt 0.062500 0.000000
vt 0.062500 0.156254
vt 0.156228 0.156254
vt 0.219068 0.156254
vt 0.219068 0.062500
vt 0.312500 0.156254
vt 0.312500 0.062500
vt 0.000000 0.156254
vt 0.000000 0.062500
vt 0.328125 0.281250
vt 0.328125 0.218750
vt 0.234375 0.218750
vt 0.234375 0.281250
vt 0.112500 0.218824
vt 0.112500 0.162500
vt 0.156230 0.162500
vt 0.156230 0.218874
vt 0.062500 0.218824
vt 0.062500 0.162500
vt 0.062500 0.262500
vt 0.112500 0.262500
vt 0.171849 0.262500
vt 0.171849 0.218824
vt 0.000000 0.262500
vt 0.000000 0.218824
vt 0.093664 0.281251
vt 0.062500 0.312500
vt 0.062500 0.281281
vt 0.031334 0.281281
vt 0.031299 0.312500
vt 0.031299 0.437500
vt 0.062500 0.437500
vt 0.093680 0.437500
vt 0.093680 0.312500
vt 0.125000 0.437500
vt 0.125000 0.312500
vt 0.000000 0.437500
vt 0.000000 0.312500
vt 0.171922 0.312500
vt 0.171922 0.437500
vt 0.203087 0.437500
vt 0.203087 0.312500
vt 0.262500 0.312500
vt 0.234361 0.312500
vt 0.234361 0.437500
vt 0.262500 0.437500
vt 0.203087 0.281413
vt 0.171922 0.281413
vt 0.234361 0.281314
vt 0.140674 0.312500
vt 0.140674 0.437500
s 0
f 5/1/1 66/2/1 72/3/1
f 5/1/1 72/3/1 2/4/1
f 6/5/2 4/6/2 3/7/2
f 6/5/2 3/7/2 1/8/2
f 2/4/3 72/3/3 3/7/3
f 2/4/3 3/7/3 4/6/3
f 72/9/4 66/10/4 1/4/4
f 72/9/4 1/4/4 3/6/4
f 66/2/5 5/1/5 6/11/5
f 66/2/5 6/11/5 1/12/5
f 10/13/1 7/14/1 11/15/1
f 10/13/1 11/15/1 8/16/1
f 13/17/2 12/18/2 9/19/2
f 13/17/2 9/19/2 14/20/2
f 10/13/6 8/16/6 12/21/6
f 10/13/6 12/21/6 13/22/6
f 8/16/3 11/15/3 9/19/3
f 8/16/3 9/19/3 12/18/3
f 11/23/4 7/16/4 14/21/4
f 11/23/4 14/21/4 9/24/4
f 7/14/5 10/13/5 13/25/5
f 7/14/5 13/25/5 14/26/5
f 22/27/1 21/28/1 19/29/1
f 22/27/1 19/29/1 17/30/1
f 15/31/2 18/27/2 20/28/2
f 15/31/2 20/28/2 16/32/2
f 22/33/6 17/34/6 18/27/6
f 22/33/6 18/27/6 15/31/6
f 17/34/3 19/35/3 20/36/3
f 17/34/3 20/36/3 18/27/3
f 19/35/4 21/37/4 16/38/4
f 19/35/4 16/38/4 20/36/4
f 21/39/5 22/33/5 15/31/5
f 21/39/5 15/31/5 16/40/5
f 30/41/4 24/42/4 26/43/4
f 30/41/4 26/43/4 29/44/4
f 25/41/6 28/43/6 27/44/6
f 25/41/6 23/42/6 28/43/6
f 36/41/4 37/42/4 33/43/4
f 36/41/4 33/43/4 35/44/4
f 31/41/6 34/43/6 32/44/6
f 31/41/6 38/42/6 34/43/6
f 42/45/1 44/46/1 39/47/1
f 42/45/1 39/47/1 40/48/1
f 45/49/2 43/45/2 41/46/2
f 45/49/2 41/46/2 46/50/2
f 42/51/6 40/52/6 43/45/6
f 42/51/6 43/45/6 45/49/6
f 40/52/3 39/53/3 41/54/3
f 40/52/3 41/54/3 43/45/3
f 44/55/5 42/51/5 45/49/5
f 44/55/5 45/49/5 46/56/5
f 55/57/1 60/58/1 59/59/1
f 48/60/2 50/61/2 52/58/2
f 48/60/2 52/58/2 53/59/2
f 47/62/7 49/63/7 50/58/7
f 47/62/7 50/58/7 48/61/7
f 49/63/3 51/64/3 52/65/3
f 49/63/3 52/65/3 50/58/3
f 51/64/8 54/66/8 53/67/8
f 51/64/8 53/67/8 52/65/8
f 54/68/5 47/62/5 48/61/5
f 54/68/5 48/61/5 53/69/5
f 68/57/1 64/58/1 69/59/1
f 62/60/2 61/61/2 57/58/2
f 62/60/2 57/58/2 58/59/2
f 59/62/7 60/63/7 61/58/7
f 59/62/7 61/58/7 62/61/7
f 60/63/3 56/64/3 57/65/3
f 60/63/3 57/65/3 61/58/3
f 56/64/8 55/66/8 58/67/8
f 56/64/8 58/67/8 57/65/8
f 55/68/5 59/62/5 62/61/5
f 55/68/5 62/61/5 58/69/5
f 77/57/1 74/58/1 71/59/1
f 70/60/2 67/61/2 65/58/2
f 70/60/2 65/58/2 66/59/2
f 69/62/9 64/63/9 67/58/9
f 69/62/9 67/58/9 70/61/9
f 64/63/3 63/64/3 65/65/3
f 64/63/3 65/65/3 67/58/3
f 63/64/10 68/66/10 66/67/10
f 63/64/10 66/67/10 65/65/10
f 68/68/5 69/62/5 70/61/5
f 68/68/5 70/61/5 66/69/5
f 78/60/2 75/61/2 72/58/2
f 78/60/2 72/58/2 73/59/2
f 71/62/9 74/63/9 75/58/9
f 71/62/9 75/58/9 78/61/9
f 74/63/3 76/64/3 72/65/3
f 74/63/3 72/65/3 75/58/3
f 76/64/10 77/66/10 73/67/10
f 76/64/10 73/67/10 72/65/10
f 77/68/5 71/62/5 78/61/5
f 77/68/5 78/61/5 73/69/5
f 81/70/11 85/71/11 84/72/11
f 81/70/11 84/72/11 82/73/11
f 83/74/12 79/75/12 80/76/12
f 83/74/12 80/76/12 86/77/12
f 81/70/13 82/73/13 79/78/13
f 81/70/13 79/78/13 83/79/13
f 82/73/3 84/72/3 80/76/3
f 82/73/3 80/76/3 79/75/3
f 84/75/14 85/73/14 86/78/14
f 84/75/14 86/78/14 80/80/14
f 85/71/5 81/70/5 83/81/5
f 85/71/5 83/81/5 86/82/5
f 54/57/1 49/58/1 47/59/1
f 55/57/1 56/65/1 60/58/1
f 68/57/1 63/65/1 64/58/1
f 77/57/1 76/65/1 74/58/1
f 54/57/1 51/65/1 49/58/1
