# Blender 4.1.1
# www.blender.org
o sitting
v 0.290400 -0.635204 -0.813839
v -0.290400 -0.289903 0.159124
v -0.290400 -0.635204 -0.813839
v -0.290400 -0.829879 0.035332
v 0.290400 -0.289903 0.159124
v 0.290400 -0.829879 0.035332
v 0.313632 -0.265473 0.164724
v -0.313632 -0.395257 0.724094
v -0.313632 -0.842488 0.032442
v 0.313632 -0.395257 0.724094
v -0.313632 -0.265473 0.164724
v -0.313632 -0.972271 0.591812
v 0.313632 -0.972271 0.598556
v 0.313632 -0.842488 0.032442
v 0.235224 -1.147926 0.836919
v 0.235224 -1.109895 0.525602
v -0.235224 -0.680949 0.893965
v -0.235224 -1.147926 0.836919
v -0.235224 -0.642919 0.582647
v -0.235224 -1.109895 0.525602
v 0.235224 -0.642919 0.582647
v 0.235224 -0.680949 0.893965
v 0.072792 -1.066201 0.595458
v 0.229608 -1.067440 0.608020
v 0.229608 -1.066201 0.595458
v 0.229608 -1.288353 0.581034
v 0.229608 -1.287113 0.568471
v 0.072792 -1.287113 0.568471
v 0.072792 -1.288353 0.581034
v 0.072792 -1.067440 0.608020
v -0.072792 -1.066201 0.595458
v -0.072792 -1.287113 0.568471
v -0.072792 -1.288353 0.581034
v -0.229608 -1.287113 0.568471
v -0.229608 -1.288353 0.581034
v -0.229608 -1.067440 0.608020
v -0.072792 -1.067440 0.608020
v -0.229608 -1.066201 0.595458
v -0.117612 -0.671442 0.816136
v -0.117612 -0.709472 1.127453
v -0.117612 -0.904930 0.787613
v 0.117612 -0.709472 1.127453
v -0.117612 -0.942961 1.098930
v 0.117612 -0.671442 0.816136
v 0.117612 -0.942961 1.098930
v 0.117612 -0.904930 0.787613
v 0.091960 -0.095228 -0.690047
v 0.290400 -0.095228 -0.690047
v 0.091960 -0.144468 -0.475262
v 0.290400 -0.144468 -0.475262
v -0.290400 -0.095228 -0.690047
v -0.091960 -0.095228 -0.690047
v -0.290400 -0.144468 -0.475262
v -0.091960 -0.144468 -0.475262
v -0.096800 -0.435792 -0.664250
v -0.096800 -0.187595 -1.397799
v 0.096800 -0.252405 -0.602201
v -0.096800 -0.252405 -0.602201
v 0.096800 -0.435792 -0.664250
v -0.096800 -0.004208 -1.335750
v 0.096800 -0.004208 -1.335750
v 0.096800 -0.187595 -1.397799
v -0.060780 0.061772 0.003552
v -0.259220 0.061772 0.003552
v -0.259220 -0.131677 -0.629559
v -0.060780 -0.131677 -0.629559
v -0.060780 -0.148454 0.069600
v -0.259220 -0.148454 0.069600
v -0.259220 -0.341641 -0.563593
v -0.060780 -0.341641 -0.563593
v 0.259220 0.061772 0.003552
v 0.060780 0.061772 0.003552
v 0.060780 -0.131677 -0.629559
v 0.259220 -0.131677 -0.629559
v 0.259220 -0.148454 0.069600
v 0.060780 -0.148454 0.069600
v 0.060780 -0.341641 -0.563593
v 0.259220 -0.341641 -0.563593
v -0.060780 0.113832 0.905537
v -0.259220 0.113832 0.905537
v -0.259220 -0.297493 0.339037
v -0.060780 -0.297493 0.339037
v -0.060780 -0.073832 1.021034
v -0.259220 -0.073832 1.021034
v -0.259220 -0.484924 0.454391
v -0.060780 -0.484924 0.454391
v 0.259220 0.113832 0.905537
v 0.060780 0.113832 0.905537
v 0.060780 -0.297493 0.339037
v 0.259220 -0.297493 0.339037
v 0.259220 -0.073832 1.021034
v 0.060780 -0.073832 1.021034
v 0.060780 -0.484924 0.454391
v 0.259220 -0.484924 0.454391
vn -0.0000 0.9747 0.2235
vn -0.0000 -0.9747 -0.2235
vn -1.0000 -0.0000 -0.0000
vn -0.0000 0.2235 -0.9747
vn 1.0000 -0.0000 -0.0000
vn -0.0000 0.9741 0.2260
vn 0.0024 -0.9741 -0.2260
vn -0.0000 -0.2235 0.9747
vn -0.0105 -0.2126 0.9771
vn -0.0000 0.9926 0.1213
vn -0.0000 -0.9926 -0.1213
vn -0.0000 -0.1213 0.9926
vn -0.0000 0.1213 -0.9926
vn -0.0000 0.9472 0.3205
vn -0.0000 -0.9472 -0.3205
vn -0.0000 -0.3205 0.9472
vn -0.0000 0.3205 -0.9472
vn -0.0000 0.2997 0.9540
vn -0.0000 -0.9565 0.2918
vn -0.0000 0.9564 -0.2922
vn -0.0000 0.5241 0.8516
vn -0.0000 -0.8094 0.5872
vn -0.0000 0.8092 -0.5875
vn -0.0000 -0.2997 -0.9540
vt 0.375000 0.312500
vt 0.375000 0.453119
vt 0.468904 0.453119
vt 0.468904 0.312500
vt 0.656260 0.312500
vt 0.562500 0.312500
vt 0.562500 0.453119
vt 0.656260 0.453119
vt 0.562500 0.218760
vt 0.468891 0.218760
vt 0.281404 0.312500
vt 0.281404 0.453119
vt 0.437500 0.109643
vt 0.437500 0.200000
vt 0.562500 0.200000
vt 0.562500 0.109643
vt 0.796839 0.109643
vt 0.671819 0.109643
vt 0.671819 0.200000
vt 0.796839 0.200000
vt 0.562500 0.000000
vt 0.437500 0.000000
vt 0.687177 0.109643
vt 0.687500 0.000000
vt 0.328154 0.109643
vt 0.328154 0.200000
vt 0.156228 0.062500
vt 0.156228 0.000000
vt 0.250000 0.000000
vt 0.250000 0.062500
vt 0.062500 0.062500
vt 0.062500 0.000000
vt 0.062500 0.156254
vt 0.156228 0.156254
vt 0.219068 0.156254
vt 0.219068 0.062500
vt 0.312500 0.156254
vt 0.312500 0.062500
vt 0.000000 0.156254
vt 0.000000 0.062500
vt 0.328125 0.281250
vt 0.328125 0.218750
vt 0.234375 0.218750
vt 0.234375 0.281250
vt 0.112500 0.218824
vt 0.112500 0.162500
vt 0.156230 0.162500
vt 0.156230 0.218874
vt 0.062500 0.218824
vt 0.062500 0.162500
vt 0.062500 0.262500
vt 0.112500 0.262500
vt 0.171849 0.262500
vt 0.171849 0.218824
vt 0.000000 0.262500
vt 0.000000 0.218824
vt 0.031334 0.281281
vt 0.031299 0.312500
vt 0.062500 0.312500
vt 0.062500 0.281281
vt 0.171922 0.312500
vt 0.171922 0.437500
vt 0.203087 0.437500
vt 0.203087 0.312500
vt 0.262500 0.312500
vt 0.234361 0.312500
vt 0.234361 0.437500
vt 0.262500 0.437500
vt 0.203087 0.281413
vt 0.171922 0.281413
vt 0.234361 0.281314
vt 0.140674 0.312500
vt 0.140674 0.437500
vt 0.093664 0.281251
vt 0.031299 0.437500
vt 0.062500 0.437500
vt 0.093680 0.437500
vt 0.093680 0.312500
vt 0.125000 0.437500
vt 0.125000 0.312500
vt 0.000000 0.437500
vt 0.000000 0.312500
s 0
f 5/1/1 48/2/1 51/3/1
f 5/1/1 51/3/1 2/4/1
f 6/5/2 4/6/2 3/7/2
f 6/5/2 3/7/2 1/8/2
f 2/4/3 51/3/3 3/7/3
f 2/4/3 3/7/3 4/6/3
f 51/9/4 48/10/4 1/4/4
f 51/9/4 1/4/4 3/6/4
f 48/2/5 5/1/5 6/11/5
f 48/2/5 6/11/5 1/12/5
f 10/13/6 7/14/6 11/15/6
f 10/13/6 11/15/6 8/16/6
f 13/17/7 12/18/7 9/19/7
f 13/17/2 9/19/2 14/20/2
f 10/13/8 8/16/8 12/21/8
f 10/13/9 12/21/9 13/22/9
f 8/16/3 11/15/3 9/19/3
f 8/16/3 9/19/3 12/18/3
f 11/23/4 7/16/4 14/21/4
f 11/23/4 14/21/4 9/24/4
f 7/14/5 10/13/5 13/25/5
f 7/14/5 13/25/5 14/26/5
f 22/27/10 21/28/10 19/29/10
f 22/27/10 19/29/10 17/30/10
f 15/31/11 18/27/11 20/28/11
f 15/31/11 20/28/11 16/32/11
f 22/33/12 17/34/12 18/27/12
f 22/33/12 18/27/12 15/31/12
f 17/34/3 19/35/3 20/36/3
f 17/34/3 20/36/3 18/27/3
f 19/35/13 21/37/13 16/38/13
f 19/35/13 16/38/13 20/36/13
f 21/39/5 22/33/5 15/31/5
f 21/39/5 15/31/5 16/40/5
f 30/41/13 24/42/13 26/43/13
f 30/41/13 26/43/13 29/44/13
f 25/41/12 28/43/12 27/44/12
f 25/41/12 23/42/12 28/43/12
f 36/41/13 37/42/13 33/43/13
f 36/41/13 33/43/13 35/44/13
f 31/41/12 34/43/12 32/44/12
f 31/41/12 38/42/12 34/43/12
f 42/45/10 44/46/10 39/47/10
f 42/45/10 39/47/10 40/48/10
f 45/49/11 43/45/11 41/46/11
f 45/49/11 41/46/11 46/50/11
f 42/51/12 40/52/12 43/45/12
f 42/51/12 43/45/12 45/49/12
f 40/52/3 39/53/3 41/54/3
f 40/52/3 41/54/3 43/45/3
f 44/55/5 42/51/5 45/49/5
f 44/55/5 45/49/5 46/56/5
f 50/57/2 49/58/2 47/59/2
f 50/57/2 47/59/2 48/60/2
f 54/57/2 53/58/2 51/59/2
f 54/57/2 51/59/2 52/60/2
f 57/61/14 61/62/14 60/63/14
f 57/61/14 60/63/14 58/64/14
f 59/65/15 55/66/15 56/67/15
f 59/65/15 56/67/15 62/68/15
f 57/61/16 58/64/16 55/69/16
f 57/61/16 55/69/16 59/70/16
f 58/64/3 60/63/3 56/67/3
f 58/64/3 56/67/3 55/66/3
f 60/66/17 61/64/17 62/69/17
f 60/66/17 62/69/17 56/71/17
f 61/62/5 57/61/5 59/72/5
f 61/62/5 59/72/5 62/73/5
f 63/74/18 68/59/18 67/60/18
f 67/75/19 68/76/19 69/59/19
f 67/75/19 69/59/19 70/58/19
f 68/76/3 64/77/3 65/78/3
f 68/76/3 65/78/3 69/59/3
f 64/77/20 63/79/20 66/80/20
f 64/77/20 66/80/20 65/78/20
f 63/81/5 67/75/5 70/58/5
f 63/81/5 70/58/5 66/82/5
f 71/74/18 76/59/18 75/60/18
f 75/75/19 76/76/19 77/59/19
f 75/75/19 77/59/19 78/58/19
f 76/76/3 72/77/3 73/78/3
f 76/76/3 73/78/3 77/59/3
f 72/77/20 71/79/20 74/80/20
f 72/77/20 74/80/20 73/78/20
f 71/81/5 75/75/5 78/58/5
f 71/81/5 78/58/5 74/82/5
f 79/74/21 84/59/21 83/60/21
f 83/75/22 84/76/22 85/59/22
f 83/75/22 85/59/22 86/58/22
f 84/76/3 80/77/3 81/78/3
f 84/76/3 81/78/3 85/59/3
f 80/77/23 79/79/23 82/80/23
f 80/77/23 82/80/23 81/78/23
f 79/81/5 83/75/5 86/58/5
f 79/81/5 86/58/5 82/82/5
f 87/74/21 92/59/21 91/60/21
f 91/75/22 92/76/22 93/59/22
f 91/75/22 93/59/22 94/58/22
f 92/76/3 88/77/3 89/78/3
f 92/76/3 89/78/3 93/59/3
f 88/77/23 87/79/23 90/80/23
f 88/77/23 90/80/23 89/78/23
f 87/81/5 91/75/5 94/58/5
f 87/81/5 94/58/5 90/82/5
f 70/58/24 65/78/24 66/82/24
f 74/82/24 77/59/24 73/78/24
f 63/74/18 64/78/18 68/59/18
f 71/74/18 72/78/18 76/59/18
f 79/74/21 80/78/21 84/59/21
f 87/74/21 88/78/21 92/59/21
f 70/58/24 69/59/24 65/78/24
f 74/82/24 78/58/24 77/59/24
