# Blender 4.1.1
# www.blender.org
o boat
v 0.750000 -0.003099 -1.250000
v 0.750000 -0.344100 -1.250000
v -0.750000 -0.003099 -1.250000
v -0.750000 -0.344100 -1.250000
v 0.750000 -0.003099 1.250000
v 0.750000 -0.344100 1.250000
v -0.750000 -0.003099 1.250000
v -0.750000 -0.344100 1.250000
v -0.750000 -0.344100 -1.250000
v -0.750000 -0.944100 -1.250000
v -0.950000 -0.344100 -1.250000
v -0.950000 -0.944100 -1.250000
v -0.750000 -0.344100 1.250000
v -0.750000 -0.944100 1.250000
v -0.950000 -0.344100 1.250000
v -0.950000 -0.944100 1.250000
v 0.750000 -0.344100 1.250000
v 0.750000 -0.944100 1.250000
v 0.950000 -0.344100 1.250000
v 0.950000 -0.944100 1.250000
v 0.750000 -0.344100 -1.250000
v 0.750000 -0.944100 -1.250000
v 0.950000 -0.344100 -1.250000
v 0.950000 -0.944100 -1.250000
v -0.750000 -0.344100 1.250000
v -0.750000 -0.944100 1.250000
v -0.750000 -0.344100 1.450000
v -0.750000 -0.944100 1.450000
v 0.750000 -0.344100 1.250000
v 0.750000 -0.944100 1.250000
v 0.750000 -0.344100 1.450000
v 0.750000 -0.944100 1.450000
v -0.750000 -0.344100 -1.450000
v -0.750000 -0.944100 -1.450000
v -0.750000 -0.344100 -1.250000
v -0.750000 -0.944100 -1.250000
v 0.750000 -0.344100 -1.450000
v 0.750000 -0.944100 -1.450000
v 0.750000 -0.344100 -1.250000
v 0.750000 -0.944100 -1.250000
vn -0.0000 -0.0000 -1.0000
vn -1.0000 -0.0000 -0.0000
vn -0.0000 -0.0000 1.0000
vn 1.0000 -0.0000 -0.0000
vn -0.0000 1.0000 -0.0000
vn -0.0000 -1.0000 -0.0000
vt 0.265625 0.937500
vt 0.289062 0.703125
vt 0.289062 0.937500
vt 0.656250 0.609375
vt 0.625000 1.000000
vt 0.625000 0.609375
vt 0.460938 0.937500
vt 0.484375 0.703125
vt 0.484375 0.937500
vt 0.656250 1.000000
vt 0.242188 0.703125
vt 0.031250 0.937500
vt 0.031250 0.703125
vt 0.460938 0.703125
vt 0.265625 0.703125
vt 0.210938 0.562500
vt 0.226562 0.656250
vt 0.210938 0.656250
vt 0.273438 0.328125
vt 0.453125 0.421875
vt 0.273438 0.421875
vt 0.023438 0.562500
vt 0.039062 0.656250
vt 0.023438 0.656250
vt 0.015625 0.343750
vt 0.195312 0.437500
vt 0.015625 0.437500
vt 0.203125 0.671875
vt 0.015625 0.703125
vt 0.015625 0.671875
vt 0.015625 0.546875
vt 0.203125 0.515625
vt 0.203125 0.546875
vt 0.242188 0.656250
vt 0.226562 0.562500
vt 0.242188 0.562500
vt 0.226562 0.281250
vt 0.343750 0.375000
vt 0.226562 0.375000
vt 0.039062 0.562500
vt 0.132812 0.437500
vt 0.015625 0.390625
vt 0.132812 0.421875
vt 0.015625 0.421875
vt 0.015625 0.281250
vt 0.132812 0.250000
vt 0.132812 0.281250
vt 0.242188 0.937500
vt 0.453125 0.328125
vt 0.195312 0.343750
vt 0.203125 0.703125
vt 0.015625 0.515625
vt 0.343750 0.281250
vt 0.132812 0.343750
vt 0.132812 0.390625
vt 0.015625 0.250000
s 0
f 2/1/1 3/2/1 1/3/1
f 4/4/2 7/5/2 3/6/2
f 8/7/3 5/8/3 7/9/3
f 6/5/4 1/4/4 5/10/4
f 7/11/5 1/12/5 3/13/5
f 4/14/6 6/1/6 8/15/6
f 10/16/1 11/17/1 9/18/1
f 12/19/2 15/20/2 11/21/2
f 16/22/3 13/23/3 15/24/3
f 14/25/4 9/26/4 13/27/4
f 15/28/5 9/29/5 11/30/5
f 12/31/6 14/32/6 16/33/6
f 18/16/3 19/17/3 17/18/3
f 20/19/4 23/20/4 19/21/4
f 24/22/1 21/23/1 23/24/1
f 22/25/2 17/26/2 21/27/2
f 23/28/5 17/29/5 19/30/5
f 20/31/6 22/32/6 24/33/6
f 26/34/2 27/35/2 25/36/2
f 28/37/3 31/38/3 27/39/3
f 32/23/4 29/22/4 31/40/4
f 30/25/1 25/41/1 29/27/1
f 27/42/5 29/43/5 25/44/5
f 28/45/6 30/46/6 32/47/6
f 34/34/2 35/35/2 33/36/2
f 36/37/3 39/38/3 35/39/3
f 40/23/4 37/22/4 39/40/4
f 38/25/1 33/41/1 37/27/1
f 35/42/5 37/43/5 33/44/5
f 36/45/6 38/46/6 40/47/6
f 2/1/1 4/15/1 3/2/1
f 4/4/2 8/10/2 7/5/2
f 8/7/3 6/14/3 5/8/3
f 6/5/4 2/6/4 1/4/4
f 7/11/5 5/48/5 1/12/5
f 4/14/6 2/7/6 6/1/6
f 10/16/1 12/35/1 11/17/1
f 12/19/2 16/49/2 15/20/2
f 16/22/3 14/40/3 13/23/3
f 14/25/4 10/50/4 9/26/4
f 15/28/5 13/51/5 9/29/5
f 12/31/6 10/52/6 14/32/6
f 18/16/3 20/35/3 19/17/3
f 20/19/4 24/49/4 23/20/4
f 24/22/1 22/40/1 21/23/1
f 22/25/2 18/50/2 17/26/2
f 23/28/5 21/51/5 17/29/5
f 20/31/6 18/52/6 22/32/6
f 26/34/2 28/17/2 27/35/2
f 28/37/3 32/53/3 31/38/3
f 32/23/4 30/24/4 29/22/4
f 30/25/1 26/54/1 25/41/1
f 27/42/5 31/55/5 29/43/5
f 28/45/6 26/56/6 30/46/6
f 34/34/2 36/17/2 35/35/2
f 36/37/3 40/53/3 39/38/3
f 40/23/4 38/24/4 37/22/4
f 38/25/1 34/54/1 33/41/1
f 35/42/5 39/55/5 37/43/5
f 36/45/6 34/56/6 38/46/6
