# Blender 4.1.1
# www.blender.org
o large_leg
v 0.109142 0.661985 -0.118479
v -0.109142 0.661985 -0.118479
v -0.109142 0.000000 -0.124211
v 0.109142 0.000000 -0.124211
v 0.109142 0.661985 0.123913
v -0.109142 0.661985 0.123913
v -0.109142 0.000000 0.117881
v 0.109142 0.000000 0.117881
vn -0.0000 1.0000 -0.0000
vn -0.0000 -0.0091 1.0000
vn -1.0000 -0.0000 -0.0000
vn -0.0000 0.0087 -1.0000
vn 1.0000 -0.0000 -0.0000
vt 0.093664 0.281251
vt 0.062500 0.312500
vt 0.062500 0.281281
vt 0.031299 0.437500
vt 0.062500 0.437500
vt 0.031299 0.312500
vt 0.093680 0.437500
vt 0.093680 0.312500
vt 0.125000 0.437500
vt 0.125000 0.312500
vt 0.000000 0.437500
vt 0.000000 0.312500
s 0
f 1/1/1 6/2/1 5/3/1
f 5/4/2 6/5/2 7/2/2
f 5/4/2 7/2/2 8/6/2
f 6/5/3 2/7/3 3/8/3
f 6/5/3 3/8/3 7/2/3
f 2/7/4 1/9/4 4/10/4
f 2/7/4 4/10/4 3/8/4
f 1/11/5 5/4/5 8/6/5
f 1/11/5 8/6/5 4/12/5
f 1/1/1 2/8/1 6/2/1
