# Blender 4.1.0
# www.blender.org
o lamp
v 1.099999 1.300000 1.100001
v 0.499999 1.300000 1.099998
v 1.100001 1.300000 0.500001
v 0.500001 1.300000 0.499999
v 0.500001 0.600000 0.499999
v 0.499999 0.600000 1.099998
v 1.100001 0.600000 0.500001
v 1.099998 0.600000 1.100001
v 0.500001 1.300000 0.499999
v 0.499999 1.300000 1.099998
v 1.100001 1.300000 0.500001
v 1.099999 1.300000 1.100001
v 0.710001 1.300000 0.710000
v 0.710000 1.300000 0.890000
v 0.890000 1.300000 0.710001
v 0.890000 1.300000 0.890000
v 0.710001 1.600000 0.710000
v 0.710000 1.600000 0.890000
v 0.890000 1.600000 0.710001
v 0.890000 1.600000 0.890000
v 0.400000 0.600000 0.400000
v 0.400000 0.600000 1.200000
v 1.200000 0.600000 0.400000
v 1.200000 0.600000 1.200000
v 0.400000 0.700000 0.400000
v 0.400000 0.700000 1.200000
v 1.200000 0.700000 0.400000
v 1.200000 0.700000 1.200000
vn -0.0000 -0.0000 1.0000
vn -1.0000 -0.0000 -0.0000
vn 1.0000 -0.0000 -0.0000
vn -0.0000 -0.0000 -1.0000
vn -0.0000 1.0000 -0.0000
vn -0.0000 -1.0000 -0.0000
vt 0.312500 1.000000
vt 0.687500 1.000000
vt 0.312500 0.562500
vt 0.312500 0.625000
vt 0.687500 0.250000
vt 0.312500 0.250000
vt 0.687500 0.625000
vt 0.437500 0.437500
vt 0.562500 0.625000
vt 0.562500 0.437500
vt 0.312500 0.437500
vt 0.437500 0.625000
vt 0.437500 0.250000
vt 0.687500 0.437500
vt 0.437500 0.375000
vt 0.562500 0.500000
vt 0.562500 0.375000
vt 0.312500 0.375000
vt 0.437500 0.500000
vt 0.562500 0.250000
vt 0.687500 0.562500
vt 0.312500 0.500000
s 0
f 1/1/1 10/2/1 2/2/1
f 4/3/2 6/2/2 2/1/2
f 1/2/3 7/3/3 3/1/3
f 3/2/4 5/3/4 4/1/4
f 2/2/1 8/3/1 1/1/1
f 10/4/5 11/5/5 9/6/5
f 2/1/2 9/3/2 4/3/2
f 3/1/3 12/2/3 1/2/3
f 4/1/4 11/2/4 3/2/4
f 21/7/6 24/6/6 22/4/6
f 13/8/4 19/9/4 15/10/4
f 16/11/1 18/12/1 14/8/1
f 14/6/2 17/8/2 13/13/2
f 15/10/3 20/7/3 16/14/3
f 21/15/4 27/16/4 23/17/4
f 24/18/1 26/19/1 22/15/1
f 22/13/2 25/17/2 21/20/2
f 23/6/3 28/15/3 24/13/3
f 1/1/2 12/1/2 10/2/2
f 4/3/2 5/21/2 6/2/2
f 1/2/3 8/21/3 7/3/3
f 3/2/4 7/21/4 5/3/4
f 2/2/1 6/21/1 8/3/1
f 10/4/5 12/7/5 11/5/5
f 2/1/2 10/1/2 9/3/2
f 3/1/3 11/1/3 12/2/3
f 4/1/3 9/1/3 11/2/3
f 21/7/6 23/5/6 24/6/6
f 13/8/4 17/12/4 19/9/4
f 16/11/1 20/4/1 18/12/1
f 14/6/2 18/11/2 17/8/2
f 15/10/3 19/9/3 20/7/3
f 21/15/4 25/19/4 27/16/4
f 24/18/1 28/22/1 26/19/1
f 22/13/2 26/15/2 25/17/2
f 23/6/3 27/18/3 28/15/3
