# Blender 4.1.1
# www.blender.org
o mule_leg
v 0.107550 -0.231600 -0.121500
v 0.107550 0.600000 0.121500
v 0.107550 0.600000 -0.121500
v 0.107550 -0.231600 0.121500
v -0.107550 0.600000 0.121500
v -0.107550 -0.231600 0.121500
v -0.107550 -0.231600 -0.121500
v -0.107550 0.600000 -0.121500
vn 1.0000 -0.0000 -0.0000
vn -0.0000 -0.0000 1.0000
vn -1.0000 -0.0000 -0.0000
vn -0.0000 -0.0000 -1.0000
vn -0.0000 -1.0000 -0.0000
vt 0.843750 0.562500
vt 0.843750 0.437500
vt 0.796875 0.437500
vt 0.796875 0.562500
vt 0.890625 0.437500
vt 0.890625 0.562500
vt 0.937500 0.562500
vt 0.937500 0.437500
vt 0.750000 0.437500
vt 0.750000 0.562500
vt 0.796875 0.515625
vt 0.750000 0.515625
s 0
f 1/1/1 3/2/1 2/3/1
f 2/3/1 4/4/1 1/1/1
f 5/5/2 6/6/2 4/7/2
f 4/7/2 2/8/2 5/5/2
f 5/3/3 8/9/3 7/10/3
f 7/10/3 6/4/3 5/3/3
f 1/1/4 7/6/4 8/5/4
f 8/5/4 3/2/4 1/1/4
f 4/11/5 7/10/5 1/4/5
f 4/11/5 6/12/5 7/10/5
