# Blender 4.1.1
# www.blender.org
o mule
v -0.096716 -0.870808 -0.613737
v 0.097109 -0.962888 -0.859472
v 0.097250 -0.871059 -0.616237
v -0.096968 -0.962701 -0.857607
v -0.097410 -0.538723 -1.020710
v -0.097318 -0.446922 -0.777762
v 0.096936 -0.447007 -0.778606
v 0.096910 -0.538769 -1.021171
v -0.064636 -1.075744 -0.607376
v 0.064688 -1.121778 -0.730175
v 0.064749 -1.075868 -0.608611
v -0.064728 -1.121671 -0.729115
v -0.064506 -0.939729 -0.796648
v -0.064380 -0.893782 -0.674711
v 0.064925 -0.893952 -0.676411
v 0.064838 -0.939876 -0.798120
v -0.097231 -0.491251 -0.764846
v 0.096972 -0.491365 -0.765980
v -0.097398 -0.092755 -1.103540
v -0.097058 -0.045189 -0.846742
v 0.097059 -0.045353 -0.848373
v 0.096912 -0.092807 -1.104056
v -0.162000 -1.582793 0.883216
v 0.162000 -1.302200 0.721215
v -0.162000 -1.302200 0.721215
v 0.162000 -1.582793 0.883215
v 0.162000 -1.809593 0.490386
v 0.162000 -1.529001 0.328386
v -0.162000 -1.809593 0.490386
v -0.162000 -1.529001 0.328386
v -0.129600 -1.132314 1.034667
v 0.129600 -1.404593 1.191867
v 0.129600 -1.132314 1.034667
v -0.129600 -1.404593 1.191867
v -0.129600 -1.598993 0.855157
v -0.129600 -1.326714 0.697956
v 0.129600 -1.326714 0.697956
v 0.129600 -1.598993 0.855157
v 0.126120 -1.498572 0.894044
v 0.126120 -1.118271 0.090953
v 0.126120 -0.859071 0.539901
v 0.126120 -1.757772 0.445097
v -0.120121 -0.859071 0.539901
v -0.120121 -1.498572 0.894044
v -0.120121 -1.757772 0.445097
v -0.120121 -1.118271 0.090953
v -0.130987 -1.699911 0.529757
v -0.122718 -1.987866 0.798223
v -0.009203 -1.716373 0.570912
v -0.244503 -1.971403 0.757067
v -0.230797 -2.004701 0.703193
v -0.117282 -1.733209 0.475882
v 0.004503 -1.749671 0.517038
v -0.109013 -2.021163 0.744348
v 0.038602 -1.699442 0.567364
v 0.222496 -1.990016 0.759223
v 0.160386 -1.708783 0.524033
v 0.100712 -1.980675 0.802553
v 0.079614 -2.012292 0.750072
v 0.017504 -1.731058 0.514882
v 0.139288 -1.740399 0.471551
v 0.201398 -2.021632 0.706741
v -0.321000 -1.230520 0.567295
v 0.300810 -0.582519 0.567295
v -0.321000 -0.582519 0.567295
v 0.300810 -1.230520 0.567295
v 0.300810 -1.230520 -0.666631
v 0.300810 -0.582519 -0.666631
v -0.320446 -1.230520 -0.663420
v -0.320742 -0.582519 -0.665133
vn 0.0033 -0.9355 0.3532
vn 0.0025 -0.9358 0.3526
vn -1.0000 -0.0011 0.0008
vn -1.0000 -0.0006 0.0012
vn 1.0000 0.0005 -0.0008
vn 1.0000 0.0004 -0.0002
vn -0.0023 -0.3590 -0.9333
vn -0.0093 -0.3562 -0.9344
vn -0.0006 0.9353 -0.3538
vn -0.0011 0.9354 -0.3535
vn 0.0042 0.3576 0.9339
vn 0.0125 0.3609 0.9325
vn 0.0025 -0.9355 0.3533
vn 0.0021 -0.9356 0.3530
vn -1.0000 0.0016 0.0004
vn -1.0000 0.0013 0.0003
vn 1.0000 -0.0010 -0.0001
vn 1.0000 -0.0010 -0.0004
vn -0.0029 0.9356 -0.3530
vn -0.0034 0.9358 -0.3526
vn -0.0111 -0.3499 -0.9367
vn -0.0080 -0.3480 -0.9375
vn 0.0128 0.3470 0.9378
vn 0.0093 0.3492 0.9370
vn 0.0005 -0.9832 0.1826
vn 0.0002 -0.9832 0.1824
vn -1.0000 0.0006 0.0012
vn -1.0000 0.0001 0.0007
vn 1.0000 -0.0002 -0.0002
vn 1.0000 -0.0001 -0.0006
vn -0.0027 -0.1827 -0.9832
vn -0.0024 -0.1826 -0.9832
vn 0.0084 0.1806 0.9835
vn 0.0059 0.1817 0.9833
vn -0.0000 0.5000 0.8660
vn 1.0000 -0.0000 -0.0000
vn -0.0000 -0.8660 0.5000
vn -1.0000 -0.0000 -0.0000
vn -0.0000 -0.5000 -0.8660
vn -0.0000 0.8660 -0.5000
vn -0.0000 0.4845 0.8748
vn -0.0000 -0.4845 -0.8748
vn -0.1542 0.6714 0.7249
vn -0.9397 0.1270 -0.3176
vn 0.9397 -0.1270 0.3176
vn -0.2688 -0.8484 0.4560
vn 0.1542 -0.6714 -0.7249
vn 0.2688 0.8484 -0.4560
vn 0.2985 0.6502 0.6987
vn -0.9397 0.0721 0.3343
vn 0.9397 -0.0721 -0.3343
vn 0.1048 -0.8699 0.4819
vn -0.2985 -0.6502 -0.6987
vn -0.1048 0.8699 -0.4819
vn -0.0000 -0.0000 1.0000
vn -1.0000 -0.0000 -0.0005
vn -1.0000 -0.0005 -0.0002
vn -0.0000 -1.0000 -0.0000
vn -0.0024 -0.0026 -1.0000
vn -0.0052 -0.0000 -1.0000
vn -0.0000 1.0000 -0.0000
vt 0.734375 0.406250
vt 0.718750 0.406250
vt 0.718750 0.437500
vt 0.734375 0.437500
vt 0.718750 0.250000
vt 0.656250 0.250000
vt 0.656250 0.375000
vt 0.718750 0.375000
vt 0.781250 0.250000
vt 0.781250 0.375000
vt 0.828125 0.375000
vt 0.875000 0.375000
vt 0.875000 0.250000
vt 0.828125 0.250000
vt 0.124006 0.903769
vt 0.079718 0.903769
vt 0.079718 0.962614
vt 0.124006 0.962614
vt 0.765625 0.421875
vt 0.765625 0.390625
vt 0.734375 0.390625
vt 0.734375 0.421875
vt 0.280490 0.911424
vt 0.236202 0.911424
vt 0.236202 0.970226
vt 0.280490 0.970226
vt 0.765625 0.156250
vt 0.703125 0.156250
vt 0.703125 0.265625
vt 0.765625 0.265625
vt 0.828125 0.265625
vt 0.828125 0.156250
vt 0.875000 0.265625
vt 0.875000 0.156250
vt 0.656250 0.156250
vt 0.656250 0.265625
vt 0.109375 0.687500
vt 0.203125 0.687500
vt 0.203125 0.609375
vt 0.109375 0.609375
vt 0.000000 0.609375
vt 0.000000 0.687500
vt 0.312500 0.687500
vt 0.312500 0.609375
vt 0.203125 0.781250
vt 0.109375 0.781250
vt 0.203125 0.796875
vt 0.296875 0.796875
vt 0.296875 0.687500
vt 0.140625 0.453125
vt 0.078125 0.453125
vt 0.078125 0.531250
vt 0.140625 0.531250
vt 0.250000 0.531250
vt 0.250000 0.453125
vt 0.000000 0.453125
vt 0.000000 0.531250
vt 0.078125 0.625000
vt 0.140625 0.625000
vt 0.171875 0.343750
vt 0.171875 0.453125
vt 0.234375 0.453125
vt 0.234375 0.343750
vt 0.125000 0.343750
vt 0.125000 0.156250
vt 0.000000 0.156250
vt 0.000000 0.343750
vt 0.125000 0.218750
vt 0.125000 0.281250
vt 0.343750 0.281250
vt 0.343750 0.218750
vt 0.265625 0.343750
vt 0.343750 0.343750
vt 0.343750 0.156250
vt 0.265625 0.156250
vt 0.281250 0.343750
vt 0.281250 0.156250
vt 0.187500 0.156250
vt 0.187500 0.343750
vt 0.125000 0.234375
vt 0.140625 0.234375
vt 0.140625 0.218750
vt 0.359375 0.687500
vt 0.328125 0.687500
vt 0.328125 0.718750
vt 0.359375 0.718750
vt 0.343750 0.718750
vt 0.343750 0.687500
vt 0.343750 0.734375
vt 0.359375 0.734375
vt 0.390625 0.734375
vt 0.390625 0.703125
vt 0.359375 0.703125
vt 0.294382 0.940496
vt 0.280490 0.940496
vt 0.280490 0.970021
vt 0.294382 0.970021
vt 0.927561 0.921414
vt 0.913669 0.921414
vt 0.913669 0.950939
vt 0.927561 0.950939
vt 0.343750 0.000000
vt 0.500000 0.156250
vt 0.500000 0.000000
vt 0.031250 0.156250
vt 0.312500 0.156250
vt 0.312500 0.000000
vt 0.031250 0.000000
vt 0.531250 0.000000
vt 0.531250 0.156250
vt 0.843750 0.156250
vt 0.843750 0.000000
vt 0.343750 0.187500
vt 0.343750 0.484375
vt 0.500000 0.484375
vt 0.500000 0.187500
vt 1.000000 0.000000
vt 0.843750 -0.000000
vt 1.000000 0.156250
vt 0.500000 0.468750
vt 0.656250 0.468750
vt 0.656250 0.187500
s 0
f 1/1/1 2/3/1 3/2/1
f 2/3/2 1/1/2 4/4/2
f 5/5/3 1/7/3 6/6/3
f 1/7/4 5/5/4 4/8/4
f 2/9/5 7/8/5 3/5/5
f 7/8/6 2/9/6 8/10/6
f 8/11/7 4/13/7 5/12/7
f 4/13/8 8/11/8 2/14/8
f 5/15/9 7/17/9 8/16/9
f 7/17/10 5/15/10 6/18/10
f 6/14/11 3/10/11 7/9/11
f 3/10/12 6/14/12 1/11/12
f 9/19/13 10/21/13 11/20/13
f 10/21/14 9/19/14 12/22/14
f 13/22/15 9/20/15 14/19/15
f 9/20/16 13/22/16 12/21/16
f 10/20/17 15/22/17 11/21/17
f 15/22/18 10/20/18 16/19/18
f 13/19/19 15/21/19 16/20/19
f 15/21/20 13/19/20 14/22/20
f 10/19/21 13/21/21 16/20/21
f 13/21/22 10/19/22 12/22/22
f 9/19/23 15/21/23 14/20/23
f 15/21/24 9/19/24 11/22/24
f 17/23/25 8/25/25 18/24/25
f 8/25/26 17/23/26 5/26/26
f 19/27/27 17/29/27 20/28/27
f 17/29/28 19/27/28 5/30/28
f 8/30/29 21/32/29 18/31/29
f 21/32/30 8/30/30 22/27/30
f 8/33/31 19/32/31 22/34/31
f 19/32/32 8/33/32 5/31/32
f 17/29/33 21/35/33 20/28/33
f 21/35/34 17/29/34 18/36/34
f 23/37/35 24/39/35 25/38/35
f 24/39/35 23/37/35 26/40/35
f 24/40/36 27/42/36 28/41/36
f 27/42/36 24/40/36 26/37/36
f 27/37/37 23/39/37 29/38/37
f 23/39/37 27/37/37 26/40/37
f 23/38/38 30/44/38 29/43/38
f 30/44/38 23/38/38 25/39/38
f 27/45/39 30/37/39 28/38/39
f 30/37/39 27/45/39 29/46/39
f 24/47/40 30/49/40 25/48/40
f 30/49/40 24/47/40 28/38/40
f 31/50/35 32/52/35 33/51/35
f 32/52/35 31/50/35 34/53/35
f 35/54/38 31/50/38 36/55/38
f 31/50/38 35/54/38 34/53/38
f 32/52/36 37/56/36 33/51/36
f 37/56/36 32/52/36 38/57/36
f 32/52/37 35/59/37 38/58/37
f 35/59/37 32/52/37 34/53/37
f 31/60/40 37/62/40 36/61/40
f 37/62/40 31/60/40 33/63/40
f 39/64/36 40/66/36 41/65/36
f 40/66/36 39/64/36 42/67/36
f 43/68/41 39/70/41 41/69/41
f 39/70/41 43/68/41 44/71/41
f 45/72/42 40/74/42 42/73/42
f 40/74/42 45/72/42 46/75/42
f 45/76/38 43/78/38 46/77/38
f 43/78/38 45/76/38 44/79/38
f 42/68/37 44/81/37 45/80/37
f 44/81/37 42/68/37 39/82/37
f 47/83/43 48/85/43 49/84/43
f 48/85/43 47/83/43 50/86/43
f 51/87/44 47/88/44 52/88/44
f 47/88/44 51/87/44 50/87/44
f 48/88/45 53/90/45 49/89/45
f 53/90/45 48/88/45 54/83/45
f 54/83/46 50/86/46 51/86/46
f 50/86/46 54/83/46 48/83/46
f 51/90/47 53/92/47 54/91/47
f 53/92/47 51/90/47 52/93/47
f 47/94/48 53/96/48 52/95/48
f 53/96/48 47/94/48 49/97/48
f 55/84/49 56/86/49 57/83/49
f 56/86/49 55/84/49 58/85/49
f 59/90/50 55/88/50 60/83/50
f 55/88/50 59/90/50 58/89/50
f 56/88/51 61/87/51 57/87/51
f 61/87/51 56/88/51 62/88/51
f 62/83/52 58/86/52 59/86/52
f 58/86/52 62/83/52 56/83/52
f 59/90/53 61/92/53 62/91/53
f 61/92/53 59/90/53 60/93/53
f 55/98/54 61/100/54 60/99/54
f 61/100/54 55/98/54 57/101/54
f 63/102/55 64/103/55 65/74/55
f 64/103/55 63/102/55 66/104/55
f 67/105/36 64/107/36 66/106/36
f 64/107/36 67/105/36 68/108/36
f 65/109/56 69/111/56 63/110/56
f 69/111/57 65/109/57 70/112/57
f 66/113/58 69/115/58 67/114/58
f 69/115/58 66/113/58 63/116/58
f 68/117/59 69/111/59 70/118/59
f 69/111/60 68/117/60 67/119/60
f 65/116/61 68/121/61 70/120/61
f 68/121/61 65/116/61 64/122/61
