# Blender 4.0.2
# www.blender.org
o boards
v 0.600000 0.400000 0.699500
v 0.600000 0.400000 0.899500
v 0.600000 0.100000 0.700500
v 0.600000 0.100000 0.900500
v 0.000000 0.400000 0.699500
v 0.000000 0.400000 0.899500
v -0.000000 0.100000 0.700500
v -0.000000 0.100000 0.900500
v 0.600000 0.700000 0.699500
v 0.600000 0.700000 0.899500
v 0.600000 1.000000 0.700500
v 0.600000 1.000000 0.900500
v 0.000000 0.700000 0.699500
v 0.000000 0.700000 0.899500
v -0.000000 1.000000 0.700500
v -0.000000 1.000000 0.900500
vn -0.0000 -1.0000 -0.0000
vn -1.0000 -0.0000 -0.0000
vn -0.0000 1.0000 -0.0000
vn -0.0000 -0.0033 -1.0000
vn -0.0000 0.0033 1.0000
vn -0.0000 0.0033 -1.0000
vn -0.0000 -0.0033 1.0000
vt -0.000000 0.687500
vt 0.375000 0.812500
vt -0.000000 0.812500
vt 0.500000 0.687500
vt 0.375000 0.500000
vt 0.500000 0.500000
vt 0.375000 0.687500
vt -0.000000 0.500000
s 0
f 4/1/1 7/2/1 3/3/1
f 7/4/2 6/5/2 5/6/2
f 6/1/3 1/2/3 5/3/3
f 3/7/4 5/8/4 1/5/4
f 4/1/5 6/5/5 8/7/5
f 15/2/3 12/1/3 11/3/3
f 15/4/2 14/5/2 16/7/2
f 9/2/1 14/1/1 13/3/1
f 11/7/6 13/8/6 15/1/6
f 14/5/7 12/1/7 16/7/7
f 4/1/1 8/7/1 7/2/1
f 7/4/2 8/7/2 6/5/2
f 6/1/3 2/7/3 1/2/3
f 3/7/4 7/1/4 5/8/4
f 4/1/5 2/8/5 6/5/5
f 15/2/3 16/7/3 12/1/3
f 15/4/2 13/6/2 14/5/2
f 9/2/1 10/7/1 14/1/1
f 11/7/6 9/5/6 13/8/6
f 14/5/7 10/8/7 12/1/7
