# Blender 4.1.1
# www.blender.org
o saddle.001
v 0.324538 -1.205822 0.165090
v -0.323462 -1.270622 0.165090
v -0.323462 -1.205822 0.165090
v 0.324538 -1.270622 0.165090
v 0.324020 -1.205822 -0.350309
v 0.324164 -1.270622 -0.351142
v -0.323462 -1.205822 -0.353310
v -0.323462 -1.270622 -0.353310
v 0.097739 -1.270622 0.165090
v -0.096661 -1.335422 0.165090
v -0.096661 -1.270622 0.165090
v 0.097739 -1.335422 0.165090
v 0.097739 -1.335422 0.035490
v 0.097739 -1.270622 0.035490
v -0.096661 -1.270622 0.035490
v -0.096661 -1.335422 0.035490
v 0.259588 -1.335422 -0.222840
v -0.258661 -1.270622 -0.223710
v 0.259479 -1.270622 -0.222208
v -0.258661 -1.335422 -0.223710
v 0.259349 -1.270622 -0.351052
v 0.259491 -1.335422 -0.351874
v -0.258661 -1.335422 -0.353310
v -0.258661 -1.270622 -0.353310
v 0.389312 -0.752222 0.035647
v 0.324460 -0.881822 0.035944
v 0.324500 -0.752222 0.035713
v 0.389277 -0.881822 0.035846
v 0.389057 -0.881822 -0.092480
v 0.389144 -0.752222 -0.092984
v 0.324313 -0.752222 -0.092804
v 0.324219 -0.881822 -0.092258
v -0.323462 -0.752222 0.035490
v -0.388261 -0.881822 0.035490
v -0.388261 -0.752222 0.035490
v -0.323462 -0.881822 0.035490
v -0.323462 -0.881822 -0.094110
v -0.323462 -0.752222 -0.094110
v -0.388261 -0.752222 -0.094110
v -0.388261 -0.881822 -0.094110
v 0.348654 -0.881822 0.003699
v 0.348743 -1.270622 0.003123
v 0.348710 -1.270622 -0.061458
v 0.348554 -0.881822 -0.060453
v -0.347681 -1.270622 0.003090
v -0.347681 -0.881822 0.003090
v -0.347681 -0.881822 -0.061710
v -0.347681 -1.270622 -0.061710
v 0.310609 -1.271415 0.002580
v 0.310579 -1.271415 -0.062001
v -0.307109 -1.271415 0.002547
v -0.307109 -1.271415 -0.062253
vn -0.0000 -0.0000 1.0000
vn 1.0000 -0.0000 -0.0010
vn 1.0000 0.0022 -0.0007
vn -1.0000 -0.0000 -0.0000
vn 0.0033 -0.0000 -1.0000
vn 0.0046 0.0129 -0.9999
vn -0.0000 -1.0000 -0.0000
vn -0.0000 1.0000 -0.0000
vn 1.0000 -0.0000 -0.0000
vn -0.0000 -0.0000 -1.0000
vn -0.0029 -0.0098 0.9999
vn -0.0017 -0.0000 1.0000
vn 1.0000 0.0022 -0.0008
vn 1.0000 0.0017 -0.0010
vn 0.0044 -0.0000 -1.0000
vn 0.0028 0.0127 -0.9999
vn 0.0010 0.0018 1.0000
vn 0.0015 0.0015 1.0000
vn 1.0000 -0.0007 -0.0013
vn 1.0000 -0.0003 -0.0017
vn -1.0000 0.0003 0.0015
vn -1.0000 0.0007 0.0019
vn -0.0034 -0.0042 -1.0000
vn -0.0028 -0.0039 -1.0000
vn 1.0000 0.0002 -0.0005
vn -0.0208 0.9998 -0.0000
vn 0.0195 0.9998 -0.0000
vn 1.0000 0.0004 -0.0016
vt 0.703125 0.859375
vt 0.546875 0.859375
vt 0.546875 0.875000
vt 0.703125 0.875000
vt 0.562500 0.984375
vt 0.562500 0.859375
vt 0.546875 0.984375
vt 0.703125 0.953125
vt 0.546875 0.953125
vt 0.703125 0.984375
vt 0.531455 0.644114
vt 0.647681 0.644114
vt 0.647681 0.496488
vt 0.531455 0.496488
vt 0.859375 0.671875
vt 0.828125 0.671875
vt 0.828125 0.687500
vt 0.859375 0.687500
vt 0.750000 0.859375
vt 0.750000 0.828125
vt 0.765625 0.859375
vt 0.781250 0.859375
vt 0.781250 0.828125
vt 0.765625 0.828125
vt 0.718750 0.828125
vt 0.718750 0.859375
vt 0.718750 0.843750
vt 0.765625 0.843750
vt 0.779684 0.952335
vt 0.750627 0.952335
vt 0.750627 0.996623
vt 0.779684 0.996623
vt 0.562500 0.968750
vt 0.687500 0.984375
vt 0.687500 0.968750
vt 0.562500 1.000000
vt 0.578125 1.000000
vt 0.578125 0.968750
vt 0.687500 1.000000
vt 0.854419 0.585063
vt 0.854419 0.703164
vt 0.883476 0.703164
vt 0.883476 0.585063
vt 0.484375 0.875000
vt 0.515625 0.859375
vt 0.515625 0.890625
vt 0.546875 0.890625
vt 0.500000 0.875000
vt 0.500000 0.843750
vt 0.500000 0.750000
vt 0.515625 0.750000
vt 0.515625 0.843750
s 0
f 1/1/1 3/2/1 2/3/1
f 2/3/1 4/4/1 1/1/1
f 5/5/2 1/6/2 4/2/2
f 4/2/3 6/7/3 5/5/3
f 2/6/4 3/2/4 7/7/4
f 7/7/4 8/5/4 2/6/4
f 6/8/5 8/9/5 7/9/5
f 7/9/6 5/8/6 6/8/6
f 2/2/7 8/7/7 6/10/7
f 6/10/7 4/1/7 2/2/7
f 1/11/8 5/12/8 7/13/8
f 7/13/8 3/14/8 1/11/8
f 9/15/1 11/16/1 10/17/1
f 10/17/1 12/18/1 9/15/1
f 13/19/9 14/19/9 9/20/9
f 9/20/9 12/20/9 13/19/9
f 10/21/4 11/22/4 15/23/4
f 15/23/4 16/24/4 10/21/4
f 16/24/7 13/25/7 12/26/7
f 12/26/7 10/21/7 16/24/7
f 13/24/10 16/25/10 15/27/10
f 15/27/10 14/28/10 13/24/10
f 9/29/8 14/30/8 15/31/8
f 15/31/8 11/32/8 9/29/8
f 17/33/11 19/5/11 18/34/11
f 18/34/12 20/35/12 17/33/12
f 17/33/13 22/36/13 21/37/13
f 21/37/14 19/38/14 17/33/14
f 18/33/4 24/36/4 23/37/4
f 23/37/4 20/38/4 18/33/4
f 23/5/15 24/36/15 21/39/15
f 21/39/16 22/34/16 23/5/16
f 23/36/7 22/39/7 17/35/7
f 17/35/7 20/33/7 23/36/7
f 18/40/8 19/41/8 21/42/8
f 21/42/8 24/43/8 18/40/8
f 25/44/17 27/44/17 26/44/17
f 26/44/18 28/44/18 25/44/18
f 29/45/19 30/46/19 25/47/19
f 25/47/20 28/2/20 29/45/20
f 26/44/21 27/44/21 31/44/21
f 31/44/22 32/44/22 26/44/22
f 29/44/23 32/44/23 31/44/23
f 31/44/24 30/44/24 29/44/24
f 32/44/7 29/44/7 28/44/7
f 28/44/7 26/44/7 32/44/7
f 25/44/8 30/44/8 31/44/8
f 31/44/8 27/44/8 25/44/8
f 33/44/1 35/44/1 34/44/1
f 34/44/1 36/44/1 33/44/1
f 37/44/9 38/44/9 33/44/9
f 33/44/9 36/44/9 37/44/9
f 34/2/4 35/45/4 39/46/4
f 39/46/4 40/47/4 34/2/4
f 37/44/10 40/44/10 39/44/10
f 39/44/10 38/44/10 37/44/10
f 40/48/7 37/48/7 36/48/7
f 36/48/7 34/48/7 40/48/7
f 33/44/8 38/44/8 39/44/8
f 39/44/8 35/44/8 33/44/8
f 45/49/4 46/50/4 47/51/4
f 47/51/4 48/52/4 45/49/4
f 43/52/25 41/50/25 42/49/25
f 43/50/26 49/51/26 42/51/26
f 51/50/27 48/50/27 45/50/27
f 41/50/28 43/52/28 44/51/28
f 43/50/26 50/50/26 49/51/26
f 51/50/27 52/50/27 48/50/27
