# Blender 4.2.1 LTS
# www.blender.org
o left_fin
v -2.201694 -0.379754 -0.142605
v -2.201694 -0.479754 -0.142605
v -0.822963 -0.379754 0.100502
v -0.822963 -0.479754 0.100502
v -2.114870 -0.379754 -0.635009
v -2.114870 -0.479754 -0.635009
v -0.736139 -0.379754 -0.391902
v -0.736139 -0.479754 -0.391902
v -0.435925 -0.379754 0.168747
v -0.435925 -0.479754 0.168747
v -0.349101 -0.379754 -0.323657
v -0.349101 -0.479754 -0.323657
vn -0.1736 -0.0000 0.9848
vn 0.1736 -0.0000 -0.9848
vn -0.9848 -0.0000 -0.1736
vn -0.0000 1.0000 -0.0000
vn -0.0000 -1.0000 -0.0000
vt 0.250000 0.437500
vt 0.351562 0.453125
vt 0.250000 0.453125
vt 0.250000 0.515625
vt 0.351562 0.531250
vt 0.250000 0.531250
vt 0.343750 0.531250
vt 0.453125 0.625000
vt 0.351562 0.546875
vt 0.453125 0.546875
vt 0.351562 0.437500
vt 0.437500 0.546875
vt 0.437500 0.625000
vt 0.351562 0.515625
vt 0.343750 0.453125
vt 0.351562 0.625000
s 0
f 2/1/1 3/2/1 1/3/1
f 8/4/2 5/5/2 7/6/2
f 6/7/3 1/2/3 5/5/3
f 7/8/4 1/9/4 3/10/4
f 4/3/5 6/5/5 8/6/5
f 12/6/5 4/3/5 8/6/5
f 10/11/1 3/2/1 4/11/1
f 11/6/2 8/4/2 7/6/2
f 9/12/4 7/13/4 3/12/4
f 2/1/1 4/11/1 3/2/1
f 8/4/2 6/14/2 5/5/2
f 6/7/3 2/15/3 1/2/3
f 7/8/4 5/16/4 1/9/4
f 4/3/5 2/2/5 6/5/5
f 12/6/5 10/3/5 4/3/5
f 10/11/1 9/2/1 3/2/1
f 11/6/2 12/4/2 8/4/2
f 9/12/4 11/13/4 7/13/4
