# Blender 4.1.1
# www.blender.org
o fence_gate_closed
v 1.600000 1.300000 0.900001
v 1.600000 0.100000 0.900001
v 1.399999 1.300000 0.899999
v 1.399999 0.100000 0.899999
v 1.600000 1.300000 0.700001
v 1.600000 0.100000 0.700001
v 1.400000 1.300000 0.699999
v 1.400000 0.100000 0.699999
v 1.400000 0.500000 0.900001
v 1.400000 0.200000 0.900001
v 1.100000 0.200000 0.899999
v 1.400000 0.500000 0.700001
v 1.400000 0.200000 0.700001
v 1.100000 0.500000 0.700001
v 1.100000 0.200000 0.699999
v 1.400000 1.200000 0.900001
v 1.400000 0.900000 0.900001
v 1.100000 1.200000 0.899999
v 1.400000 1.200000 0.700001
v 1.400000 0.900000 0.700001
v 1.100000 1.200000 0.699999
v 1.100000 0.900000 0.900000
v 1.100000 0.500000 0.900000
v 1.100000 0.900000 0.700001
v 1.100000 0.200000 0.900000
v 1.100000 0.200000 0.700000
v 1.100000 1.200000 0.900000
v 1.100000 1.200000 0.700000
v 0.800000 0.200000 0.899999
v 0.800000 0.500000 0.700001
v 0.800000 0.200000 0.699999
v 0.800000 1.200000 0.899999
v 0.800000 1.200000 0.699999
v 0.800000 0.900000 0.900000
v 0.800000 0.500000 0.900000
v 0.800000 0.900000 0.700001
v -0.000011 1.300000 0.699999
v -0.000011 0.100000 0.699999
v 0.199989 1.300000 0.700001
v 0.199989 0.100000 0.700001
v -0.000011 1.300000 0.899999
v -0.000011 0.100000 0.899999
v 0.199989 1.300000 0.900001
v 0.199989 0.100000 0.900001
v 0.199989 0.500000 0.699999
v 0.199989 0.200000 0.699999
v 0.499989 0.200000 0.700001
v 0.199989 0.500000 0.899999
v 0.199989 0.200000 0.899999
v 0.499989 0.500000 0.899999
v 0.499989 0.200000 0.900001
v 0.199989 1.200000 0.699998
v 0.199989 0.900000 0.699999
v 0.499989 1.200000 0.700001
v 0.199989 1.200000 0.899999
v 0.199989 0.900000 0.899999
v 0.499989 1.200000 0.900001
v 0.499989 0.900000 0.700000
v 0.499989 0.500000 0.700000
v 0.499989 0.900000 0.899999
v 0.499989 0.200000 0.700000
v 0.499989 0.200000 0.900000
v 0.499989 1.200000 0.700000
v 0.499988 1.200000 0.900000
v 0.799989 0.200000 0.700001
v 0.799989 0.500000 0.899999
v 0.799989 0.200000 0.900001
v 0.799989 1.200000 0.700001
v 0.799989 1.200000 0.900001
v 0.799989 0.900000 0.700000
v 0.799989 0.500000 0.700000
v 0.799989 0.900000 0.899999
vn -0.0000 -0.0000 1.0000
vn -1.0000 -0.0000 -0.0000
vn -0.0000 -0.0000 -1.0000
vn 1.0000 -0.0000 -0.0000
vn -0.0000 1.0000 -0.0000
vn -0.0000 -1.0000 -0.0000
vn 0.6978 0.7088 -0.1034
vn 0.7017 -0.7072 0.0868
vn 0.9975 -0.0000 -0.0704
vn 0.1517 -0.9884 -0.0000
vn -0.0000 0.9994 -0.0342
vn -0.9976 -0.0000 0.0690
vt 0.125000 0.125000
vt 0.000000 0.875000
vt 0.000000 0.125000
vt 0.125000 0.875000
vt 0.000000 1.000000
vt 0.125000 1.000000
vt 0.500000 0.187500
vt 0.312500 0.375000
vt 0.187500 0.000000
vt 0.187500 1.000000
vt 1.000000 0.125000
vt 0.812500 0.000000
vt 0.812500 0.125000
vt 0.312500 0.812500
vt 0.500000 0.625000
vt 0.500000 0.812500
vt 0.500000 0.687500
vt 0.312500 0.687500
vt 0.375000 0.625000
vt 0.562500 0.500000
vt 0.375000 0.500000
vt 0.125000 0.000000
vt 0.000000 0.250000
vt 0.125000 0.250000
vt 0.312500 0.187500
vt 0.687500 0.187500
vt 0.500000 0.375000
vt 0.687500 0.375000
vt 0.687500 0.812500
vt 0.687500 0.625000
vt 0.500000 0.437500
vt 0.375000 0.687500
vt 0.375000 0.875000
vt 0.500000 0.875000
vt 0.375000 0.437500
vt 0.375000 0.250000
vt 0.500000 0.250000
vt 0.000000 -0.000000
vt 1.000000 0.000000
vt 0.312500 0.625000
vt 0.562500 0.625000
vt 0.687500 0.687500
s 0
f 3/1/1 2/2/1 1/3/1
f 7/3/2 4/4/2 3/1/2
f 5/4/3 8/3/3 7/2/3
f 1/3/4 6/4/4 5/1/4
f 3/5/5 5/4/5 7/2/5
f 6/4/6 4/5/6 8/6/6
f 21/7/7 28/7/7 20/8/7
f 12/9/4 10/5/4 13/10/4
f 9/11/5 14/12/5 23/13/5
f 10/14/1 23/15/1 11/16/1
f 28/16/5 18/17/5 16/18/5
f 19/9/4 17/5/4 20/10/4
f 24/19/6 17/20/6 22/21/6
f 24/22/4 23/23/4 14/24/4
f 26/16/3 14/15/3 13/14/3
f 11/17/6 26/16/6 10/18/6
f 17/8/1 16/25/1 18/7/1
f 32/26/1 22/27/1 18/7/1
f 34/28/1 23/15/1 22/27/1
f 11/17/6 31/29/6 15/16/6
f 15/16/3 30/30/3 14/15/3
f 36/28/3 21/7/3 24/27/3
f 33/29/5 18/17/5 21/16/5
f 14/15/3 36/28/3 24/27/3
f 35/30/1 11/16/1 23/15/1
f 30/31/2 34/32/2 36/17/2
f 34/32/2 32/33/2 33/34/2
f 33/34/2 36/17/2 34/32/2
f 34/32/2 30/31/2 35/35/2
f 35/35/2 30/31/2 29/36/2
f 29/36/2 30/31/2 31/37/2
f 39/1/3 38/2/3 37/3/3
f 43/3/4 40/4/4 39/1/4
f 41/4/1 44/3/1 43/2/1
f 37/3/2 42/4/2 41/1/2
f 39/5/5 41/4/5 43/2/5
f 42/4/6 40/5/6 44/6/6
f 57/7/1 55/25/1 56/8/1
f 48/9/2 46/5/2 49/10/2
f 45/11/5 50/12/5 59/13/5
f 46/14/3 59/15/3 47/16/3
f 64/16/5 54/17/5 52/18/5
f 55/9/2 53/5/2 56/10/2
f 60/19/6 53/20/6 58/21/6
f 58/38/2 50/24/2 60/22/2
f 62/16/1 50/15/1 49/14/1
f 47/17/6 62/16/6 46/18/6
f 53/8/8 63/7/8 54/7/8
f 68/26/3 58/27/3 54/7/3
f 58/27/3 71/30/3 59/15/3
f 47/17/6 67/29/6 51/16/6
f 51/16/1 66/30/1 50/15/1
f 72/28/1 57/7/1 60/27/1
f 69/29/5 54/17/5 57/16/5
f 66/30/1 60/27/1 50/15/1
f 71/30/3 47/16/3 59/15/3
f 66/31/4 70/32/4 72/17/4
f 70/32/4 68/33/4 69/34/4
f 69/34/4 72/17/4 70/32/4
f 70/32/4 66/31/4 71/35/4
f 71/35/4 66/31/4 65/36/4
f 65/36/4 66/31/4 67/37/4
f 3/1/1 4/4/1 2/2/1
f 7/3/2 8/2/2 4/4/2
f 5/4/3 6/1/3 8/3/3
f 1/3/4 2/2/4 6/4/4
f 3/5/5 1/6/5 5/4/5
f 6/4/6 2/2/6 4/5/6
f 20/8/3 24/27/3 21/7/3
f 28/7/3 19/25/3 20/8/3
f 12/9/4 9/38/4 10/5/4
f 9/11/5 12/39/5 14/12/5
f 11/16/5 25/16/5 10/14/5
f 10/14/1 9/40/1 23/15/1
f 28/16/6 21/16/6 18/17/6
f 18/17/5 27/17/5 16/18/5
f 16/18/5 19/14/5 28/16/5
f 19/9/4 16/38/4 17/5/4
f 24/19/6 20/41/6 17/20/6
f 24/22/4 22/38/4 23/23/4
f 26/16/9 15/16/9 14/15/9
f 14/15/3 12/40/3 13/14/3
f 11/17/10 15/16/10 26/16/10
f 26/16/6 13/14/6 10/18/6
f 18/7/1 22/27/1 17/8/1
f 32/26/1 34/28/1 22/27/1
f 34/28/1 35/30/1 23/15/1
f 11/17/6 29/42/6 31/29/6
f 15/16/3 31/29/3 30/30/3
f 36/28/3 33/26/3 21/7/3
f 33/29/5 32/42/5 18/17/5
f 14/15/3 30/30/3 36/28/3
f 35/30/1 29/29/1 11/16/1
f 39/1/3 40/4/3 38/2/3
f 43/3/4 44/2/4 40/4/4
f 41/4/1 42/1/1 44/3/1
f 37/3/2 38/2/2 42/4/2
f 39/5/5 37/6/5 41/4/5
f 42/4/6 38/2/6 40/5/6
f 56/8/1 60/27/1 57/7/1
f 57/7/5 64/7/5 55/25/5
f 48/9/2 45/38/2 46/5/2
f 45/11/5 48/39/5 50/12/5
f 47/16/11 61/16/11 46/14/11
f 46/14/3 45/40/3 59/15/3
f 64/16/3 57/16/3 54/17/3
f 54/17/5 63/17/5 52/18/5
f 52/18/5 55/14/5 64/16/5
f 55/9/2 52/38/2 53/5/2
f 60/19/6 56/41/6 53/20/6
f 58/38/2 59/23/2 50/24/2
f 62/16/12 51/16/12 50/15/12
f 50/15/1 48/40/1 49/14/1
f 47/17/6 51/16/6 62/16/6
f 62/16/6 49/14/6 46/18/6
f 54/7/3 58/27/3 53/8/3
f 53/8/3 52/25/3 63/7/3
f 68/26/3 70/28/3 58/27/3
f 58/27/3 70/28/3 71/30/3
f 47/17/6 65/42/6 67/29/6
f 51/16/1 67/29/1 66/30/1
f 72/28/1 69/26/1 57/7/1
f 69/29/5 68/42/5 54/17/5
f 66/30/1 72/28/1 60/27/1
f 71/30/3 65/29/3 47/16/3
