# Blender 4.1.1
# www.blender.org
o fence_gate_closed
v 1.600000 1.300000 0.900001
v 1.600000 0.100000 0.900001
v 1.399999 1.300000 0.899999
v 1.399999 0.100000 0.899999
v 1.600000 1.300000 0.700001
v 1.600000 0.100000 0.700001
v 1.400000 1.300000 0.699999
v 1.400000 0.100000 0.699999
v 1.400000 0.500000 0.900001
v 1.400000 0.200000 0.900001
v 1.100000 0.200000 0.899999
v 1.400000 0.500000 0.700001
v 1.400000 0.200000 0.700001
v 1.100000 0.500000 0.700001
v 1.100000 0.200000 0.699999
v 1.400000 1.200000 0.900001
v 1.400000 0.900000 0.900001
v 1.100000 1.200000 0.899999
v 1.400000 1.200000 0.700001
v 1.400000 0.900000 0.700001
v 1.100000 1.200000 0.699999
v 1.100000 0.900000 0.900000
v 1.100000 0.500000 0.900000
v 1.100000 0.900000 0.700001
v 1.100000 0.200000 0.900000
v 1.100000 0.200000 0.700000
v 1.100000 1.200000 0.900000
v 1.100000 1.200000 0.700000
v 0.800000 0.200000 0.899999
v 0.800000 0.500000 0.700001
v 0.800000 0.200000 0.699999
v 0.800000 1.200000 0.899999
v 0.800000 1.200000 0.699999
v 0.800000 0.900000 0.900000
v 0.800000 0.500000 0.900000
v 0.800000 0.900000 0.700001
v -0.000011 1.300000 0.699999
v -0.000011 0.100000 0.699999
v 0.199989 1.300000 0.700001
v 0.199989 0.100000 0.700001
v -0.000011 1.300000 0.899999
v -0.000011 0.100000 0.899999
v 0.199989 1.300000 0.900001
v 0.199989 0.100000 0.900001
v 0.199989 0.500000 0.699999
v 0.199989 0.200000 0.699999
v 0.499989 0.200000 0.700001
v 0.199989 0.500000 0.899999
v 0.199989 0.200000 0.899999
v 0.499989 0.500000 0.899999
v 0.499989 0.200000 0.900001
v 0.199989 1.200000 0.699998
v 0.199989 0.900000 0.699999
v 0.499989 1.200000 0.700001
v 0.199989 1.200000 0.899999
v 0.199989 0.900000 0.899999
v 0.499989 1.200000 0.900001
v 0.499989 0.900000 0.700000
v 0.499989 0.500000 0.700000
v 0.499989 0.900000 0.899999
v 0.499989 0.200000 0.700000
v 0.499989 0.200000 0.900000
v 0.499989 1.200000 0.700000
v 0.499988 1.200000 0.900000
v 0.799989 0.200000 0.700001
v 0.799989 0.500000 0.899999
v 0.799989 0.200000 0.900001
v 0.799989 1.200000 0.700001
v 0.799989 1.200000 0.900001
v 0.799989 0.900000 0.700000
v 0.799989 0.500000 0.700000
v 0.799989 0.900000 0.899999
vn -0.0000 -0.0000 -1.0000
vn 1.0000 -0.0000 -0.0000
vn -0.0000 -0.0000 1.0000
vn -1.0000 -0.0000 -0.0000
vn -0.0000 -1.0000 -0.0000
vn -0.0000 1.0000 -0.0000
vn -0.6985 -0.7096 0.0928
vn -0.7178 0.6942 0.0542
vn 0.6957 -0.7183 0.0106
vn 0.7050 0.7071 -0.0542
vn -0.7010 0.7065 -0.0967
vn -0.0000 -0.9999 0.0141
vn -0.1482 0.9890 -0.0000
vn -0.0000 -0.9994 0.0342
vn -0.0000 -0.9999 -0.0141
vt 0.000000 0.875000
vt 0.125000 0.125000
vt 0.000000 0.125000
vt 0.125000 0.875000
vt 0.000000 1.000000
vt 0.125000 1.000000
vt 0.312500 0.375000
vt 0.500000 0.187500
vt 0.187500 0.000000
vt 0.000000 -0.000000
vt 0.812500 0.000000
vt 1.000000 0.125000
vt 0.812500 0.125000
vt 0.500000 0.812500
vt 0.312500 0.625000
vt 0.312500 0.812500
vt 0.312500 0.687500
vt 0.500000 0.687500
vt 0.375000 0.625000
vt 0.562500 0.500000
vt 0.562500 0.625000
vt 0.125000 0.250000
vt 0.125000 0.000000
vt 0.312500 0.187500
vt 0.500000 0.375000
vt 0.687500 0.187500
vt 0.500000 0.625000
vt 0.687500 0.375000
vt 0.687500 0.812500
vt 0.687500 0.687500
vt 0.687500 0.625000
vt 0.500000 0.437500
vt 0.375000 0.687500
vt 0.500000 0.875000
vt 0.375000 0.875000
vt 0.375000 0.437500
vt 0.375000 0.250000
vt 0.500000 0.250000
vt 0.187500 1.000000
vt 1.000000 0.000000
vt 0.375000 0.500000
vt 0.000000 0.250000
s 0
f 2/1/1 3/2/1 1/3/1
f 4/4/2 7/3/2 3/2/2
f 8/3/3 5/4/3 7/1/3
f 6/4/4 1/3/4 5/2/4
f 3/5/5 5/4/5 1/6/5
f 4/5/6 6/4/6 8/6/6
f 20/7/7 28/8/7 21/8/7
f 12/9/4 10/5/4 9/10/4
f 14/11/5 9/12/5 23/13/5
f 11/14/1 9/15/1 10/16/1
f 28/14/5 16/17/5 18/18/5
f 19/9/4 17/5/4 16/10/4
f 24/19/6 17/20/6 20/21/6
f 14/22/4 22/10/4 24/23/4
f 26/14/8 12/15/8 15/14/8
f 10/17/6 26/14/6 11/18/6
f 18/8/1 16/24/1 17/7/1
f 22/25/1 32/26/1 18/8/1
f 23/27/1 34/28/1 22/25/1
f 11/18/6 31/29/6 29/30/6
f 15/14/3 30/31/3 31/29/3
f 21/8/3 36/28/3 24/25/3
f 18/18/5 33/29/5 21/14/5
f 14/27/3 36/28/3 30/31/3
f 11/14/1 35/31/1 23/27/1
f 30/32/2 36/18/2 34/33/2
f 34/33/2 33/34/2 32/35/2
f 33/34/2 34/33/2 36/18/2
f 34/33/2 35/36/2 30/32/2
f 35/36/2 29/37/2 30/32/2
f 29/37/2 31/38/2 30/32/2
f 38/1/3 39/2/3 37/3/3
f 40/4/4 43/3/4 39/2/4
f 44/3/1 41/4/1 43/1/1
f 42/4/2 37/3/2 41/2/2
f 39/5/5 41/4/5 37/6/5
f 40/5/6 42/4/6 44/6/6
f 56/7/9 64/8/9 57/8/9
f 48/9/2 46/5/2 45/10/2
f 50/11/5 45/12/5 59/13/5
f 47/14/3 45/15/3 46/16/3
f 64/14/5 52/17/5 54/18/5
f 55/9/2 53/5/2 52/10/2
f 60/19/6 53/20/6 56/21/6
f 50/22/2 58/10/2 60/23/2
f 62/14/10 48/15/10 51/14/10
f 46/17/6 62/14/6 47/18/6
f 54/8/11 63/8/11 53/7/11
f 58/25/3 68/26/3 54/8/3
f 58/25/3 71/31/3 70/28/3
f 47/18/6 67/29/6 65/30/6
f 51/14/1 66/31/1 67/29/1
f 57/8/1 72/28/1 60/25/1
f 54/18/5 69/29/5 57/14/5
f 60/25/1 66/31/1 50/27/1
f 47/14/3 71/31/3 59/27/3
f 66/32/4 72/18/4 70/33/4
f 70/33/4 69/34/4 68/35/4
f 69/34/4 70/33/4 72/18/4
f 70/33/4 71/36/4 66/32/4
f 71/36/4 65/37/4 66/32/4
f 65/37/4 67/38/4 66/32/4
f 2/1/1 4/4/1 3/2/1
f 4/4/2 8/1/2 7/3/2
f 8/3/3 6/2/3 5/4/3
f 6/4/4 2/1/4 1/3/4
f 3/5/5 7/1/5 5/4/5
f 4/5/6 2/1/6 6/4/6
f 21/8/3 24/25/3 20/7/3
f 20/7/3 19/24/3 28/8/3
f 12/9/4 13/39/4 10/5/4
f 14/11/5 12/40/5 9/12/5
f 10/16/5 25/14/5 11/14/5
f 11/14/1 23/27/1 9/15/1
f 28/14/5 19/16/5 16/17/5
f 16/17/12 27/18/12 18/18/12
f 18/18/6 21/14/6 28/14/6
f 19/9/4 20/39/4 17/5/4
f 24/19/6 22/41/6 17/20/6
f 14/22/4 23/42/4 22/10/4
f 26/14/3 13/16/3 12/15/3
f 12/15/3 14/27/3 15/14/3
f 10/17/6 13/16/6 26/14/6
f 26/14/13 15/14/13 11/18/13
f 17/7/1 22/25/1 18/8/1
f 22/25/1 34/28/1 32/26/1
f 23/27/1 35/31/1 34/28/1
f 11/18/6 15/14/6 31/29/6
f 15/14/3 14/27/3 30/31/3
f 21/8/3 33/26/3 36/28/3
f 18/18/5 32/30/5 33/29/5
f 14/27/3 24/25/3 36/28/3
f 11/14/1 29/29/1 35/31/1
f 38/1/3 40/4/3 39/2/3
f 40/4/4 44/1/4 43/3/4
f 44/3/1 42/2/1 41/4/1
f 42/4/2 38/1/2 37/3/2
f 39/5/5 43/1/5 41/4/5
f 40/5/6 38/1/6 42/4/6
f 57/8/1 60/25/1 56/7/1
f 56/7/1 55/24/1 64/8/1
f 48/9/2 49/39/2 46/5/2
f 50/11/5 48/40/5 45/12/5
f 46/16/14 61/14/14 47/14/14
f 47/14/3 59/27/3 45/15/3
f 64/14/5 55/16/5 52/17/5
f 52/17/15 63/18/15 54/18/15
f 54/18/5 57/14/5 64/14/5
f 55/9/2 56/39/2 53/5/2
f 60/19/6 58/41/6 53/20/6
f 50/22/2 59/42/2 58/10/2
f 62/14/1 49/16/1 48/15/1
f 48/15/1 50/27/1 51/14/1
f 46/17/6 49/16/6 62/14/6
f 62/14/6 51/14/6 47/18/6
f 53/7/3 58/25/3 54/8/3
f 63/8/3 52/24/3 53/7/3
f 58/25/3 70/28/3 68/26/3
f 58/25/3 59/27/3 71/31/3
f 47/18/6 51/14/6 67/29/6
f 51/14/1 50/27/1 66/31/1
f 57/8/1 69/26/1 72/28/1
f 54/18/5 68/30/5 69/29/5
f 60/25/1 72/28/1 66/31/1
f 47/14/3 65/29/3 71/31/3
