# Blender 4.1.1
# www.blender.org
o open_fence_gate
v 1.600000 1.300000 0.900001
v 1.600000 0.100000 0.900001
v 1.399999 1.300000 0.899999
v 1.399999 0.100000 0.899999
v 1.600000 1.300000 0.700001
v 1.600000 0.100000 0.700001
v 1.400000 1.300000 0.699999
v 1.400000 0.100000 0.699999
v 1.399999 0.500000 0.699999
v 1.399999 0.200000 0.699999
v 1.400001 0.200000 0.399999
v 1.599999 0.500000 0.700000
v 1.599999 0.200000 0.700000
v 1.599999 0.500000 0.400000
v 1.600001 0.200000 0.400000
v 1.399999 1.200000 0.699999
v 1.399999 0.900000 0.699999
v 1.400001 1.200000 0.399999
v 1.599999 1.200000 0.700000
v 1.599999 0.900000 0.700000
v 1.600001 1.200000 0.400000
v 1.400000 0.900000 0.399999
v 1.400000 0.500000 0.399999
v 1.599999 0.900000 0.400000
v 1.400000 0.200000 0.399999
v 1.600000 0.200000 0.400000
v 1.400000 1.200000 0.399999
v 1.600000 1.200000 0.400000
v 1.400001 0.200000 0.099999
v 1.599999 0.500000 0.100000
v 1.600001 0.200000 0.100000
v 1.400001 1.200000 0.099999
v 1.600001 1.200000 0.100000
v 1.400000 0.900000 0.099999
v 1.400000 0.500000 0.099999
v 1.599999 0.900000 0.100000
v -0.000011 1.300000 0.699999
v -0.000011 0.100000 0.699999
v 0.199989 1.300000 0.700001
v 0.199989 0.100000 0.700001
v -0.000011 1.300000 0.899999
v -0.000011 0.100000 0.899999
v 0.199989 1.300000 0.900001
v 0.199989 0.100000 0.900001
v -0.000001 0.500000 0.699999
v -0.000001 0.200000 0.699999
v 0.000001 0.200000 0.399999
v 0.199999 0.500000 0.700000
v 0.199999 0.200000 0.700000
v 0.199999 0.500000 0.400000
v 0.200001 0.200000 0.400000
v -0.000001 1.200000 0.699999
v -0.000001 0.900000 0.699999
v 0.000001 1.200000 0.399999
v 0.199999 1.200000 0.700000
v 0.199999 0.900000 0.700000
v 0.200001 1.200000 0.400000
v 0.000000 0.900000 0.399999
v 0.000000 0.500000 0.399999
v 0.199999 0.900000 0.400000
v 0.000000 0.200000 0.399999
v 0.200000 0.200000 0.400000
v 0.000000 1.200000 0.399999
v 0.200000 1.200000 0.400000
v 0.000001 0.200000 0.099999
v 0.199999 0.500000 0.100000
v 0.200001 0.200000 0.100000
v 0.000001 1.200000 0.099999
v 0.200001 1.200000 0.100000
v -0.000000 0.900000 0.099999
v 0.000000 0.500000 0.099999
v 0.199999 0.900000 0.100000
vn -0.0000 -0.0000 -1.0000
vn 1.0000 -0.0000 -0.0000
vn -0.0000 -0.0000 1.0000
vn -1.0000 -0.0000 -0.0000
vn -0.0000 -1.0000 -0.0000
vn -0.0000 1.0000 -0.0000
vn -0.0491 -0.7067 -0.7058
vn -0.0502 0.6891 -0.7230
vn -0.0446 -0.7029 -0.7099
vn 0.0250 -0.9997 -0.0000
vn -0.0000 -0.6490 0.7608
vn 0.0624 -0.9981 -0.0000
vn -0.0000 -0.5970 0.8022
vt 0.000000 0.875000
vt 0.125000 0.125000
vt 0.000000 0.125000
vt 0.125000 0.875000
vt 0.000000 1.000000
vt 0.125000 1.000000
vt 0.312500 0.375000
vt 0.500000 0.187500
vt 0.187500 1.000000
vt 0.000000 -0.000000
vt 0.187500 0.000000
vt 0.812500 0.000000
vt 1.000000 0.125000
vt 0.812500 0.125000
vt 0.500000 0.812500
vt 0.312500 0.625000
vt 0.312500 0.812500
vt 0.312500 0.687500
vt 0.500000 0.687500
vt 0.375000 0.625000
vt 0.562500 0.500000
vt 0.562500 0.625000
vt 0.125000 0.000000
vt 0.000000 0.250000
vt 0.500000 0.375000
vt 0.687500 0.187500
vt 0.500000 0.625000
vt 0.687500 0.375000
vt 0.687500 0.812500
vt 0.687500 0.687500
vt 0.687500 0.625000
vt 0.500000 0.437500
vt 0.375000 0.687500
vt 0.500000 0.875000
vt 0.375000 0.875000
vt 0.375000 0.437500
vt 0.375000 0.250000
vt 0.500000 0.250000
vt 0.125000 0.250000
vt 0.312500 0.187500
vt 1.000000 0.000000
vt 0.375000 0.500000
s 0
f 2/1/1 3/2/1 1/3/1
f 4/4/2 7/3/2 3/2/2
f 8/3/3 5/4/3 7/1/3
f 6/4/4 1/3/4 5/2/4
f 3/5/5 5/4/5 1/6/5
f 4/5/6 6/4/6 8/6/6
f 20/7/7 28/8/7 21/8/7
f 13/9/1 9/10/1 12/11/1
f 14/12/5 9/13/5 23/14/5
f 11/15/2 9/16/2 10/17/2
f 28/15/5 16/18/5 18/19/5
f 20/9/1 16/10/1 19/11/1
f 24/20/6 17/21/6 20/22/6
f 24/23/1 23/24/1 22/10/1
f 26/15/8 12/16/8 15/15/8
f 10/18/6 26/15/6 11/19/6
f 22/25/2 32/26/2 18/8/2
f 23/27/2 34/28/2 22/25/2
f 11/19/6 31/29/6 29/30/6
f 15/15/4 30/31/4 31/29/4
f 21/8/4 36/28/4 24/25/4
f 18/19/5 33/29/5 21/15/5
f 24/25/4 30/31/4 14/27/4
f 11/15/2 35/31/2 23/27/2
f 30/32/3 36/19/3 34/33/3
f 34/33/3 33/34/3 32/35/3
f 33/34/3 34/33/3 36/19/3
f 34/33/3 35/36/3 30/32/3
f 35/36/3 29/37/3 30/32/3
f 29/37/3 31/38/3 30/32/3
f 38/1/3 39/2/3 37/3/3
f 40/4/4 43/3/4 39/2/4
f 44/3/1 41/4/1 43/1/1
f 42/4/2 37/3/2 41/2/2
f 39/5/5 41/4/5 37/6/5
f 40/5/6 42/4/6 44/6/6
f 56/7/9 64/8/9 57/8/9
f 48/11/1 46/5/1 45/10/1
f 50/12/5 45/13/5 59/14/5
f 47/15/2 45/16/2 46/17/2
f 64/15/5 52/18/5 54/19/5
f 55/11/1 53/5/1 52/10/1
f 60/20/6 53/21/6 56/22/6
f 50/39/1 58/10/1 60/23/1
f 49/17/4 50/27/4 51/15/4
f 46/18/6 62/15/6 47/19/6
f 58/25/2 68/26/2 54/8/2
f 58/25/2 71/31/2 70/28/2
f 47/19/6 67/29/6 65/30/6
f 51/15/4 66/31/4 67/29/4
f 57/8/4 72/28/4 60/25/4
f 54/19/5 69/29/5 57/15/5
f 60/25/4 66/31/4 50/27/4
f 47/15/2 71/31/2 59/27/2
f 66/32/3 72/19/3 70/33/3
f 70/33/3 69/34/3 68/35/3
f 69/34/3 70/33/3 72/19/3
f 70/33/3 71/36/3 66/32/3
f 71/36/3 65/37/3 66/32/3
f 65/37/3 67/38/3 66/32/3
f 2/1/1 4/4/1 3/2/1
f 4/4/2 8/1/2 7/3/2
f 8/3/3 6/2/3 5/4/3
f 6/4/4 2/1/4 1/3/4
f 3/5/5 7/1/5 5/4/5
f 4/5/6 2/1/6 6/4/6
f 21/8/4 24/25/4 20/7/4
f 20/7/4 19/40/4 28/8/4
f 13/9/1 10/5/1 9/10/1
f 14/12/5 12/41/5 9/13/5
f 10/17/10 25/15/10 11/15/10
f 11/15/2 23/27/2 9/16/2
f 28/15/5 19/17/5 16/18/5
f 16/18/5 27/19/5 18/19/5
f 18/19/11 21/15/11 28/15/11
f 20/9/1 17/5/1 16/10/1
f 24/20/6 22/42/6 17/21/6
f 24/23/1 14/39/1 23/24/1
f 26/15/4 13/17/4 12/16/4
f 12/16/4 14/27/4 15/15/4
f 10/18/6 13/17/6 26/15/6
f 26/15/6 15/15/6 11/19/6
f 17/7/2 22/25/2 18/8/2
f 16/40/2 17/7/2 18/8/2
f 22/25/2 34/28/2 32/26/2
f 23/27/2 35/31/2 34/28/2
f 11/19/6 15/15/6 31/29/6
f 15/15/4 14/27/4 30/31/4
f 21/8/4 33/26/4 36/28/4
f 18/19/5 32/30/5 33/29/5
f 24/25/4 36/28/4 30/31/4
f 11/15/2 29/29/2 35/31/2
f 38/1/3 40/4/3 39/2/3
f 40/4/4 44/1/4 43/3/4
f 44/3/1 42/2/1 41/4/1
f 42/4/2 38/1/2 37/3/2
f 39/5/5 43/1/5 41/4/5
f 40/5/6 38/1/6 42/4/6
f 57/8/4 60/25/4 56/7/4
f 56/7/4 55/40/4 64/8/4
f 48/11/1 49/9/1 46/5/1
f 50/12/5 48/41/5 45/13/5
f 46/17/12 61/15/12 47/15/12
f 47/15/2 59/27/2 45/16/2
f 64/15/5 55/17/5 52/18/5
f 52/18/5 63/19/5 54/19/5
f 54/19/13 57/15/13 64/15/13
f 55/11/1 56/9/1 53/5/1
f 60/20/6 58/42/6 53/21/6
f 50/39/1 59/24/1 58/10/1
f 51/15/6 62/15/6 49/17/6
f 49/17/4 48/16/4 50/27/4
f 46/18/6 49/17/6 62/15/6
f 62/15/6 51/15/6 47/19/6
f 53/7/2 58/25/2 54/8/2
f 52/40/2 53/7/2 54/8/2
f 58/25/2 70/28/2 68/26/2
f 58/25/2 59/27/2 71/31/2
f 47/19/6 51/15/6 67/29/6
f 51/15/4 50/27/4 66/31/4
f 57/8/4 69/26/4 72/28/4
f 54/19/5 68/30/5 69/29/5
f 60/25/4 72/28/4 66/31/4
f 47/15/2 65/29/2 71/31/2
