# Blender 4.0.2
# www.blender.org
o post
v 1.000000 1.600000 0.599500
v 1.000000 1.600000 0.999500
v 1.000000 0.000000 0.600500
v 1.000000 0.000000 1.000500
v 0.600000 1.600000 0.599500
v 0.600000 1.600000 0.999500
v 0.600000 0.000000 0.600500
v 0.600000 0.000000 1.000500
vn 1.0000 -0.0000 -0.0000
vn -0.0000 -1.0000 -0.0000
vn -1.0000 -0.0000 -0.0000
vn -0.0000 1.0000 -0.0000
vn -0.0000 -0.0006 -1.0000
vn -0.0000 0.0006 1.0000
vt 1.000000 0.000000
vt 0.750000 1.000000
vt 0.750000 0.000000
vt 0.000000 0.750000
vt 0.250000 1.000000
vt 0.000000 1.000000
vt 0.500000 1.000000
vt 0.250000 0.000000
vt 0.500000 0.000000
vt 1.000000 1.000000
vt 0.250000 0.750000
vt 0.000000 0.000000
s 0
f 2/1/1 3/2/1 1/3/1
f 4/4/2 7/5/2 3/6/2
f 7/7/3 6/8/3 5/9/3
f 6/4/4 1/5/4 5/6/4
f 7/7/5 1/3/5 3/2/5
f 4/6/6 6/8/6 8/5/6
f 2/1/1 4/10/1 3/2/1
f 4/4/2 8/11/2 7/5/2
f 7/7/3 8/5/3 6/8/3
f 6/4/4 2/11/4 1/5/4
f 7/7/5 5/9/5 1/3/5
f 4/6/6 2/12/6 6/8/6
