# Blender 4.1.1
# www.blender.org
o open_fence_gate
v 0.000000 0.300000 0.900001
v 0.000000 1.500000 0.900001
v 0.200000 0.300000 0.899999
v 0.200000 1.500000 0.899999
v -0.000000 0.300000 0.700001
v -0.000000 1.500000 0.700001
v 0.200000 0.300000 0.699999
v 0.200000 1.500000 0.699999
v 0.200001 1.100000 0.699999
v 0.200001 1.400000 0.699999
v 0.199998 1.400000 0.399999
v 0.000001 1.100000 0.700000
v 0.000001 1.400000 0.700000
v 0.000001 1.100000 0.400000
v -0.000001 1.400000 0.400000
v 0.200001 0.400000 0.699999
v 0.200001 0.700000 0.699999
v 0.199999 0.400000 0.399999
v 0.000001 0.400000 0.700000
v 0.000001 0.700000 0.700000
v -0.000001 0.400000 0.400000
v 0.200000 0.700000 0.399999
v 0.200000 1.100000 0.399999
v 0.000001 0.700000 0.400000
v 0.200000 1.400000 0.399999
v -0.000000 1.400000 0.400000
v 0.200000 0.400000 0.399999
v -0.000000 0.400000 0.400000
v 0.199999 1.400000 0.099999
v 0.000001 1.100000 0.100000
v -0.000001 1.400000 0.100000
v 0.199999 0.400000 0.099999
v -0.000001 0.400000 0.100000
v 0.200000 0.700000 0.099999
v 0.200000 1.100000 0.099999
v 0.000001 0.700000 0.100000
v 1.600011 0.300000 0.699999
v 1.600011 1.500000 0.699999
v 1.400011 0.300000 0.700001
v 1.400011 1.500000 0.700001
v 1.600011 0.300000 0.899999
v 1.600011 1.500000 0.899999
v 1.400011 0.300000 0.900001
v 1.400011 1.500000 0.900001
v 1.600001 1.100000 0.699999
v 1.600001 1.400000 0.699999
v 1.599998 1.400000 0.399999
v 1.400001 1.100000 0.700000
v 1.400001 1.400000 0.700000
v 1.400001 1.100000 0.400000
v 1.399998 1.400000 0.400000
v 1.600001 0.400000 0.699999
v 1.600001 0.700000 0.699999
v 1.599999 0.400000 0.399999
v 1.400001 0.400000 0.700000
v 1.400001 0.700000 0.700000
v 1.399999 0.400000 0.400000
v 1.600000 0.700000 0.399999
v 1.600000 1.100000 0.399999
v 1.400001 0.700000 0.400000
v 1.600000 1.400000 0.399999
v 1.400000 1.400000 0.400000
v 1.600000 0.400000 0.399999
v 1.400000 0.400000 0.400000
v 1.599998 1.400000 0.099999
v 1.400001 1.100000 0.100000
v 1.399999 1.400000 0.100000
v 1.599999 0.400000 0.099999
v 1.399999 0.400000 0.100000
v 1.600000 0.700000 0.099999
v 1.600000 1.100000 0.099999
v 1.400001 0.700000 0.100000
vn -0.0000 -0.0000 1.0000
vn 1.0000 -0.0000 -0.0000
vn -0.0000 -0.0000 -1.0000
vn -1.0000 -0.0000 -0.0000
vn -0.0000 -1.0000 -0.0000
vn -0.0000 1.0000 -0.0000
vn -0.0464 -0.7428 0.6680
vn -0.0442 -0.7080 0.7049
vn 0.0250 -0.9997 -0.0000
vn -0.0792 -0.0000 0.9969
vn -0.0000 0.9575 0.2883
vn 0.0624 -0.9981 -0.0000
vn -0.0000 0.9913 0.1317
vt 0.125000 0.125000
vt 0.000000 0.875000
vt 0.000000 0.125000
vt 0.125000 0.875000
vt 0.000000 1.000000
vt 0.125000 1.000000
vt 0.500000 0.187500
vt 0.312500 0.375000
vt 0.000000 -0.000000
vt 0.187500 1.000000
vt 0.187500 0.000000
vt 1.000000 0.125000
vt 0.812500 0.000000
vt 0.812500 0.125000
vt 0.312500 0.812500
vt 0.500000 0.625000
vt 0.500000 0.812500
vt 0.500000 0.687500
vt 0.312500 0.687500
vt 0.375000 0.625000
vt 0.562500 0.500000
vt 0.375000 0.500000
vt 0.125000 0.000000
vt 0.000000 0.250000
vt 0.125000 0.250000
vt 0.687500 0.187500
vt 0.500000 0.375000
vt 0.687500 0.375000
vt 0.687500 0.812500
vt 0.687500 0.625000
vt 0.500000 0.437500
vt 0.375000 0.687500
vt 0.375000 0.875000
vt 0.500000 0.875000
vt 0.375000 0.437500
vt 0.375000 0.250000
vt 0.500000 0.250000
vt 0.312500 0.625000
vt 0.312500 0.187500
vt 1.000000 0.000000
vt 0.562500 0.625000
vt 0.687500 0.687500
s 0
f 3/1/1 2/2/1 1/3/1
f 7/3/2 4/4/2 3/1/2
f 5/4/3 8/3/3 7/2/3
f 1/3/4 6/4/4 5/1/4
f 3/5/5 5/4/5 7/2/5
f 6/4/6 4/5/6 8/6/6
f 21/7/7 28/7/7 20/8/7
f 9/9/1 13/10/1 12/11/1
f 9/12/5 14/13/5 23/14/5
f 10/15/2 23/16/2 11/17/2
f 28/17/5 18/18/5 16/19/5
f 16/9/1 20/10/1 19/11/1
f 24/20/6 17/21/6 22/22/6
f 24/23/1 23/24/1 14/25/1
f 26/17/4 14/16/4 13/15/4
f 11/18/6 26/17/6 10/19/6
f 32/26/2 22/27/2 18/7/2
f 34/28/2 23/16/2 22/27/2
f 11/18/6 31/29/6 15/17/6
f 15/17/4 30/30/4 14/16/4
f 36/28/4 21/7/4 24/27/4
f 33/29/5 18/18/5 21/17/5
f 30/30/4 24/27/4 14/16/4
f 35/30/2 11/17/2 23/16/2
f 30/31/3 34/32/3 36/18/3
f 34/32/3 32/33/3 33/34/3
f 33/34/3 36/18/3 34/32/3
f 34/32/3 30/31/3 35/35/3
f 35/35/3 30/31/3 29/36/3
f 29/36/3 30/31/3 31/37/3
f 39/1/3 38/2/3 37/3/3
f 43/3/4 40/4/4 39/1/4
f 41/4/1 44/3/1 43/2/1
f 37/3/2 42/4/2 41/1/2
f 39/5/5 41/4/5 43/2/5
f 42/4/6 40/5/6 44/6/6
f 57/7/8 64/7/8 56/8/8
f 48/11/1 46/5/1 49/10/1
f 45/12/5 50/13/5 59/14/5
f 46/15/2 59/16/2 47/17/2
f 64/17/5 54/18/5 52/19/5
f 52/9/1 56/10/1 55/11/1
f 60/20/6 53/21/6 58/22/6
f 60/23/1 59/24/1 50/25/1
f 51/17/4 48/38/4 49/15/4
f 47/18/6 62/17/6 46/19/6
f 68/26/2 58/27/2 54/7/2
f 58/27/2 71/30/2 59/16/2
f 47/18/6 67/29/6 51/17/6
f 51/17/4 66/30/4 50/16/4
f 72/28/4 57/7/4 60/27/4
f 69/29/5 54/18/5 57/17/5
f 66/30/4 60/27/4 50/16/4
f 71/30/2 47/17/2 59/16/2
f 66/31/3 70/32/3 72/18/3
f 70/32/3 68/33/3 69/34/3
f 69/34/3 72/18/3 70/32/3
f 70/32/3 66/31/3 71/35/3
f 71/35/3 66/31/3 65/36/3
f 65/36/3 66/31/3 67/37/3
f 3/1/1 4/4/1 2/2/1
f 7/3/2 8/2/2 4/4/2
f 5/4/3 6/1/3 8/3/3
f 1/3/4 2/2/4 6/4/4
f 3/5/5 1/6/5 5/4/5
f 6/4/6 2/2/6 4/5/6
f 20/8/4 24/27/4 21/7/4
f 28/7/4 19/39/4 20/8/4
f 9/9/1 10/5/1 13/10/1
f 9/12/5 12/40/5 14/13/5
f 11/17/9 25/17/9 10/15/9
f 10/15/2 9/38/2 23/16/2
f 28/17/5 21/17/5 18/18/5
f 18/18/5 27/18/5 16/19/5
f 16/19/5 19/15/5 28/17/5
f 16/9/1 17/5/1 20/10/1
f 24/20/6 20/41/6 17/21/6
f 24/23/1 22/9/1 23/24/1
f 26/17/10 15/17/10 14/16/10
f 14/16/4 12/38/4 13/15/4
f 11/18/11 15/17/11 26/17/11
f 26/17/6 13/15/6 10/19/6
f 18/7/2 22/27/2 17/8/2
f 18/7/2 17/8/2 16/39/2
f 32/26/2 34/28/2 22/27/2
f 34/28/2 35/30/2 23/16/2
f 11/18/6 29/42/6 31/29/6
f 15/17/4 31/29/4 30/30/4
f 36/28/4 33/26/4 21/7/4
f 33/29/5 32/42/5 18/18/5
f 30/30/4 36/28/4 24/27/4
f 35/30/2 29/29/2 11/17/2
f 39/1/3 40/4/3 38/2/3
f 43/3/4 44/2/4 40/4/4
f 41/4/1 42/1/1 44/3/1
f 37/3/2 38/2/2 42/4/2
f 39/5/5 37/6/5 41/4/5
f 42/4/6 38/2/6 40/5/6
f 56/8/4 60/27/4 57/7/4
f 64/7/4 55/39/4 56/8/4
f 48/11/1 45/9/1 46/5/1
f 45/12/5 48/40/5 50/13/5
f 47/17/12 61/17/12 46/15/12
f 46/15/2 45/38/2 59/16/2
f 64/17/5 57/17/5 54/18/5
f 54/18/5 63/18/5 52/19/5
f 52/19/5 55/15/5 64/17/5
f 52/9/1 53/5/1 56/10/1
f 60/20/6 56/41/6 53/21/6
f 60/23/1 58/9/1 59/24/1
f 49/15/6 62/17/6 51/17/6
f 51/17/4 50/16/4 48/38/4
f 47/18/13 51/17/13 62/17/13
f 62/17/6 49/15/6 46/19/6
f 54/7/2 58/27/2 53/8/2
f 54/7/2 53/8/2 52/39/2
f 68/26/2 70/28/2 58/27/2
f 58/27/2 70/28/2 71/30/2
f 47/18/6 65/42/6 67/29/6
f 51/17/4 67/29/4 66/30/4
f 72/28/4 69/26/4 57/7/4
f 69/29/5 68/42/5 54/18/5
f 66/30/4 72/28/4 60/27/4
f 71/30/2 65/29/2 47/17/2
