# Blender 4.0.2
# www.blender.org
o fox
v -0.240000 0.284332 0.294933
v 0.240000 0.284332 0.294933
v -0.240000 0.284332 0.654933
v 0.240000 0.284332 0.654933
v -0.240000 0.644332 0.294933
v 0.240000 0.644332 0.294933
v -0.240000 0.644332 0.654933
v 0.240000 0.644332 0.654933
v -0.120000 0.284332 0.714933
v 0.120000 0.284332 0.714933
v -0.120000 0.404332 0.714933
v 0.120000 0.404332 0.714933
v 0.240000 0.284332 0.714933
v 0.240000 0.404332 0.714933
v -0.240000 0.284332 0.714933
v -0.240000 0.404332 0.714933
v -0.240000 0.404332 0.654933
v 0.120000 0.284332 0.654933
v -0.120000 0.284332 0.654933
v 0.240000 0.404332 0.654933
v 0.240000 0.284332 0.654933
v -0.240000 0.284332 0.654933
v 0.120000 0.284332 0.774933
v -0.120000 0.284332 0.774933
v -0.120000 0.404332 0.774933
v 0.120000 0.404332 0.774933
v 0.060000 0.464332 0.714933
v -0.060000 0.464332 0.714933
v -0.060000 0.404332 0.714933
v 0.060000 0.404332 0.714933
v 0.060000 0.464332 0.654933
v -0.060000 0.464332 0.654933
v 0.060000 0.404332 0.654933
v -0.060000 0.404332 0.654933
v 0.180000 0.704332 0.294933
v -0.180000 0.704332 0.294933
v 0.180000 0.344332 0.294933
v -0.180000 0.344332 0.294933
v 0.180000 0.704332 -0.365067
v -0.180000 0.704332 -0.365067
v 0.180000 0.344332 -0.365067
v -0.180000 0.344332 -0.365067
v 0.120000 0.644332 -0.365067
v -0.120000 0.644332 -0.365067
v 0.120000 0.404332 -0.365067
v -0.120000 0.404332 -0.365067
v 0.120000 0.644332 -0.965067
v -0.120000 0.644332 -0.965067
v 0.120000 0.404332 -0.965067
v -0.120000 0.404332 -0.965067
v -0.060000 0.464332 0.254349
v -0.240000 0.464332 0.254349
v -0.060000 0.044332 0.254349
v -0.240000 0.044332 0.254349
v -0.060000 0.464332 0.074349
v -0.240000 0.464332 0.074349
v -0.060000 0.044332 0.074349
v -0.240000 0.044332 0.074349
v -0.060000 0.464332 -0.165651
v -0.240000 0.464332 -0.165651
v -0.060000 0.044332 -0.165651
v -0.240000 0.044332 -0.165651
v -0.060000 0.464332 -0.345651
v -0.240000 0.464332 -0.345651
v -0.060000 0.044332 -0.345651
v -0.240000 0.044332 -0.345651
v 0.240000 0.464332 0.254349
v 0.060000 0.464332 0.254349
v 0.240000 0.044332 0.254349
v 0.060000 0.044332 0.254349
v 0.240000 0.464332 0.074349
v 0.060000 0.464332 0.074349
v 0.240000 0.044332 0.074349
v 0.060000 0.044332 0.074349
v 0.240000 0.464332 -0.165651
v 0.060000 0.464332 -0.165651
v 0.240000 0.044332 -0.165651
v 0.060000 0.044332 -0.165651
v 0.240000 0.464332 -0.345651
v 0.060000 0.464332 -0.345651
v 0.240000 0.044332 -0.345651
v 0.060000 0.044332 -0.345651
v -0.240000 0.644332 0.594933
v 0.240000 0.644332 0.594933
v 0.060000 0.644332 0.534933
v -0.060000 0.644332 0.534933
v -0.240000 0.746403 0.594933
v 0.240000 0.746403 0.594933
v 0.060000 0.746403 0.534933
v -0.060000 0.746403 0.534933
v 0.060000 0.644332 0.534933
v 0.240000 0.644332 0.594933
v 0.060000 0.746403 0.534933
v 0.240000 0.746403 0.594933
v -0.060000 0.644332 0.534933
v -0.240000 0.644332 0.594933
v -0.060000 0.746403 0.534933
v -0.240000 0.746403 0.594933
vn -1.0000 -0.0000 -0.0000
vn 1.0000 -0.0000 -0.0000
vn -0.0000 -0.0000 1.0000
vn -0.0000 -1.0000 -0.0000
vn -0.0000 -0.0000 -1.0000
vn -0.0000 1.0000 -0.0000
vn -0.3162 -0.0000 -0.9487
vn -0.3162 -0.0000 0.9487
vn 0.3162 -0.0000 -0.9487
vn 0.3162 -0.0000 0.9487
vt 0.437500 0.656250
vt 0.312500 0.468750
vt 0.437500 0.468750
vt 0.020833 0.468750
vt 0.145833 0.656250
vt 0.020833 0.656250
vt 0.145833 0.468750
vt 0.312500 0.843750
vt 0.479167 0.656250
vt 0.479167 0.843750
vt 0.604167 0.468750
vt 0.604167 0.656250
vt 0.312500 0.656250
vt 0.145833 0.843750
vt 0.500000 0.906250
vt 0.541667 0.968750
vt 0.541667 0.906250
vt 0.625000 0.906250
vt 0.541667 0.937500
vt 0.625000 0.937500
vt 0.666667 0.968750
vt 0.625000 0.968750
vt 0.312500 0.531250
vt 0.333333 0.468750
vt 0.604167 0.906250
vt 0.562500 0.937500
vt 0.604167 0.937500
vt 0.312500 0.500000
vt 0.270833 0.500000
vt 0.520833 0.937500
vt 0.562500 0.906250
vt 0.520833 0.906250
vt 0.562500 0.968750
vt 0.645833 0.906250
vt 0.604167 0.968750
vt 0.187500 0.500000
vt 0.145833 0.500000
vt 0.250000 0.500000
vt 0.270833 0.531250
vt 0.187500 0.531250
vt 0.208333 0.500000
vt 0.208333 0.531250
vt 0.229167 0.562500
vt 0.229167 0.531250
vt 0.250000 0.562500
vt 0.250000 0.531250
vt 0.208333 0.468750
vt 0.250000 0.468750
vt 0.875000 0.531250
vt 0.750000 0.343750
vt 0.875000 0.343750
vt 0.666667 0.625000
vt 0.875000 0.781250
vt 0.666667 0.781250
vt 0.875000 0.000000
vt 0.750000 0.000000
vt 0.625000 -0.000000
vt 0.500000 0.343750
vt 0.500000 -0.000000
vt 1.000000 -0.000000
vt 0.208333 0.000000
vt 0.291667 0.281250
vt 0.291667 0.000000
vt 0.208333 0.281250
vt 0.375000 0.000000
vt 0.375000 0.281250
vt 0.458333 0.000000
vt 0.291667 0.437500
vt 0.375000 0.312500
vt 0.291667 0.312500
vt 0.166667 0.062500
vt 0.125000 0.000000
vt 0.166667 0.000000
vt 0.166667 0.187500
vt 0.125000 0.187500
vt 0.062500 -0.000000
vt 0.104167 0.187500
vt 0.104167 -0.000000
vt 0.166667 -0.000000
vt 0.125000 0.062500
vt 0.083333 0.000000
vt 0.083333 0.187500
vt 0.041667 0.187500
vt 0.041667 -0.000000
vt 0.020833 -0.000000
vt 0.020833 0.187500
vt 0.125000 -0.000000
vt 0.062500 0.187500
vt 0.145833 0.187500
vt 0.145833 -0.000000
vt 0.041667 0.000000
vt 0.000000 0.187500
vt -0.000000 0.000000
vt 0.270833 0.312500
vt 0.145833 0.406250
vt 0.145833 0.312500
vt 0.291667 0.875000
vt 0.166667 0.968750
vt 0.166667 0.875000
vt 0.145833 0.531250
vt 0.125000 0.468750
vt 0.125000 0.531250
vt 0.125000 0.312500
vt -0.000000 0.406250
vt -0.000000 0.312500
vt 0.437500 0.875000
vt 0.312500 0.968750
vt 0.312500 0.875000
vt 0.500000 0.968750
vt 0.666667 0.906250
vt 0.333333 0.531250
vt 0.645833 0.937500
vt 0.208333 0.562500
vt 0.750000 0.531250
vt 0.875000 0.625000
vt 0.625000 0.343750
vt 1.000000 0.343750
vt 0.458333 0.281250
vt 0.375000 0.437500
vt 0.270833 0.406250
vt 0.291667 0.968750
vt 0.125000 0.406250
vt 0.437500 0.968750
s 0
f 5/1/1 1/3/1 3/2/1
f 2/4/2 6/6/2 8/5/2
f 3/2/3 4/7/3 8/5/3
f 1/8/4 2/10/4 4/9/4
f 5/1/5 6/12/5 2/11/5
f 7/13/6 8/5/6 6/14/6
f 12/15/3 10/17/3 13/16/3
f 24/18/4 9/20/4 10/19/4
f 16/21/3 15/22/3 9/18/3
f 14/23/2 13/2/2 21/24/2
f 9/25/4 19/27/4 18/26/4
f 16/28/6 11/29/6 17/2/6
f 21/30/4 13/32/4 10/31/4
f 12/33/2 26/16/2 23/17/2
f 19/27/4 9/25/4 15/34/4
f 25/22/1 11/35/1 9/25/1
f 12/36/6 14/37/6 20/7/6
f 29/38/6 11/29/6 25/39/6
f 26/40/6 12/36/6 30/41/6
f 30/41/6 29/38/6 25/39/6
f 24/17/3 23/18/3 26/22/3
f 32/42/6 28/44/6 27/43/6
f 29/42/3 30/46/3 27/45/3
f 32/44/1 34/44/1 29/44/1
f 31/42/2 27/42/2 30/42/2
f 33/47/6 30/41/6 12/36/6
f 34/48/6 17/2/6 11/29/6
f 36/49/3 38/51/3 37/50/3
f 41/11/5 42/3/5 40/1/5
f 37/52/4 38/54/4 42/53/4
f 35/55/2 37/56/2 41/50/2
f 38/57/1 36/59/1 40/58/1
f 36/60/6 35/55/6 39/51/6
f 45/61/4 46/63/4 50/62/4
f 47/64/2 43/61/2 45/63/2
f 50/62/1 46/63/1 44/65/1
f 48/66/6 44/65/6 43/67/6
f 48/68/5 47/70/5 49/69/5
f 53/71/4 54/73/4 58/72/4
f 55/74/2 51/75/2 53/72/2
f 58/76/1 54/78/1 52/77/1
f 56/79/6 52/71/6 51/80/6
f 56/75/5 55/82/5 57/81/5
f 52/83/3 54/84/3 53/81/3
f 61/72/4 62/80/4 66/71/4
f 63/82/2 59/86/2 61/85/2
f 66/84/1 62/81/1 60/82/1
f 64/79/6 60/71/6 59/80/6
f 64/75/5 63/82/5 65/81/5
f 60/75/3 62/87/3 61/79/3
f 69/71/4 70/73/4 74/72/4
f 71/88/2 67/86/2 69/85/2
f 74/78/1 70/90/1 68/89/1
f 72/80/6 68/87/6 67/79/6
f 72/77/5 71/88/5 73/76/5
f 68/75/3 70/87/3 69/79/3
f 77/72/4 78/80/4 82/71/4
f 79/74/2 75/75/2 77/72/2
f 82/91/1 78/81/1 76/82/1
f 80/71/6 76/80/6 75/87/6
f 80/75/5 79/82/5 81/81/5
f 76/92/3 78/93/3 77/91/3
f 86/94/7 83/96/7 87/95/7
f 85/97/8 84/99/8 88/98/8
f 22/100/1 15/102/1 16/101/1
f 92/103/9 91/105/9 93/104/9
f 96/106/10 95/108/10 97/107/10
f 5/1/1 3/2/1 7/13/1
f 2/4/2 8/5/2 4/7/2
f 3/2/3 8/5/3 7/13/3
f 1/8/4 4/9/4 3/13/4
f 5/1/5 2/11/5 1/3/5
f 7/13/6 6/14/6 5/8/6
f 12/15/3 13/16/3 14/109/3
f 24/18/4 10/19/4 23/17/4
f 16/21/3 9/18/3 11/110/3
f 14/23/2 21/24/2 20/111/2
f 9/25/4 18/26/4 10/31/4
f 21/30/4 10/31/4 18/26/4
f 12/33/2 23/17/2 10/31/2
f 19/27/4 15/34/4 22/112/4
f 25/22/1 9/25/1 24/18/1
f 26/40/6 30/41/6 25/39/6
f 24/17/3 26/22/3 25/16/3
f 32/42/6 27/43/6 31/113/6
f 29/42/3 27/45/3 28/113/3
f 32/44/1 29/44/1 28/44/1
f 31/42/2 30/42/2 33/42/2
f 33/47/6 12/36/6 20/7/6
f 34/48/6 11/29/6 29/38/6
f 36/49/3 37/50/3 35/114/3
f 41/11/5 40/1/5 39/12/5
f 37/52/4 42/53/4 41/115/4
f 35/55/2 41/50/2 39/51/2
f 38/57/1 40/58/1 42/116/1
f 36/60/6 39/51/6 40/117/6
f 45/61/4 50/62/4 49/64/4
f 47/64/2 45/63/2 49/62/2
f 50/62/1 44/65/1 48/66/1
f 48/66/6 43/67/6 47/118/6
f 48/68/5 49/69/5 50/119/5
f 53/71/4 58/72/4 57/80/4
f 55/74/2 53/72/2 57/73/2
f 58/76/1 52/77/1 56/88/1
f 56/79/6 51/80/6 55/87/6
f 56/75/5 57/81/5 58/72/5
f 52/83/3 53/81/3 51/82/3
f 61/72/4 66/71/4 65/73/4
f 63/82/2 61/85/2 65/81/2
f 66/84/1 60/82/1 64/83/1
f 64/79/6 59/80/6 63/87/6
f 64/75/5 65/81/5 66/87/5
f 60/75/3 61/79/3 59/74/3
f 69/71/4 74/72/4 73/80/4
f 71/88/2 69/85/2 73/76/2
f 74/78/1 68/89/1 72/77/1
f 72/80/6 67/79/6 71/71/6
f 72/77/5 73/76/5 74/78/5
f 68/75/3 69/79/3 67/74/3
f 77/72/4 82/71/4 81/73/4
f 79/74/2 77/72/2 81/73/2
f 82/91/1 76/82/1 80/83/1
f 80/71/6 75/87/6 79/79/6
f 80/75/5 81/81/5 82/72/5
f 76/92/3 77/91/3 75/83/3
f 86/94/7 87/95/7 90/120/7
f 85/97/8 88/98/8 89/121/8
f 22/100/1 16/101/1 17/7/1
f 92/103/9 93/104/9 94/122/9
f 96/106/10 97/107/10 98/123/10
